<?xml version="1.0" standalone="no"?>
<!DOCTYPE svg PUBLIC "-//W3C//DTD SVG 20010904//EN"
 "http://www.w3.org/TR/2001/REC-SVG-20010904/DTD/svg10.dtd">
<svg version="1.0" xmlns="http://www.w3.org/2000/svg"
 width="720.000000pt" height="720.000000pt" viewBox="0 0 720.000000 720.000000"
 preserveAspectRatio="xMidYMid meet">

<g transform="translate(0.000000,720.000000) scale(0.100000,-0.100000)"
fill="#000000" stroke="none">
<path d="M0 6969 c0 -170 3 -228 11 -223 8 5 10 -1 5 -19 -7 -29 12 -49 24
-26 5 8 18 25 30 39 12 14 26 35 31 48 11 29 33 29 26 -1 -5 -17 0 -26 24 -39
27 -16 41 -41 109 -193 5 -11 11 -42 13 -68 3 -26 12 -56 21 -66 13 -14 15
-28 10 -60 -4 -28 -3 -41 5 -41 6 0 11 -15 12 -32 l1 -33 8 28 c17 55 22 57
166 57 78 0 135 4 139 10 4 6 -43 10 -134 10 -133 0 -141 1 -141 19 0 11 5 23
11 27 7 4 71 7 143 8 l130 1 8 45 c5 25 6 51 3 58 -10 27 14 52 50 52 31 0 35
3 39 33 9 53 12 257 4 257 -5 0 -8 5 -8 10 0 6 32 10 75 10 43 0 75 -4 75 -10
0 -6 -27 -10 -60 -10 -79 0 -77 -18 3 -22 l62 -3 3 -125 c2 -87 7 -129 16
-140 13 -14 30 -71 26 -86 -4 -15 30 -24 100 -25 41 -1 89 -4 105 -8 28 -6 30
-9 31 -56 0 -28 4 -68 7 -90 16 -93 17 -115 2 -115 -10 0 -15 11 -15 32 0 43
-11 29 -21 -29 -5 -26 -15 -52 -22 -58 -23 -17 -28 -73 -11 -107 8 -16 13 -37
10 -45 -3 -8 2 -29 11 -45 14 -23 15 -32 6 -35 -31 -11 4 -76 35 -66 15 4 15
3 2 -6 -8 -6 -23 -11 -33 -11 -30 0 -16 -35 16 -38 31 -4 35 -16 10 -31 -16
-10 -16 -11 4 -17 13 -3 20 -10 17 -15 -3 -5 0 -9 6 -9 6 0 8 -5 5 -11 -4 -6
-19 -7 -36 -4 -18 4 -29 3 -29 -4 0 -6 5 -11 10 -11 6 0 8 -11 4 -26 -5 -18
-1 -29 12 -39 19 -14 19 -14 0 -15 -13 0 -17 -5 -13 -20 4 -15 0 -20 -15 -20
-15 0 -18 4 -13 18 16 37 11 47 -20 44 -16 -2 -31 -8 -33 -13 -5 -13 -32 -11
-32 2 0 7 -9 9 -24 5 -14 -3 -28 0 -35 8 -7 8 -21 12 -31 9 -11 -3 -20 -1 -20
4 0 6 -21 9 -47 6 -85 -6 -160 -4 -187 6 -25 10 -26 14 -26 81 l0 71 -53 25
c-30 13 -74 26 -98 29 -24 3 -57 7 -74 9 -30 3 -34 14 -20 48 4 11 1 16 -10
15 -19 -2 -26 8 -49 68 l-15 40 0 -40 c0 -22 6 -87 14 -145 7 -58 20 -157 29
-220 25 -190 27 -171 -21 -185 -23 -7 -50 -20 -59 -30 -16 -15 -18 -15 -26 -1
-5 9 -13 16 -18 16 -13 0 -13 -37 0 -45 6 -3 10 -10 10 -16 0 -13 -38 -11 -42
3 -3 7 -13 5 -33 -8 -22 -15 -29 -16 -33 -5 -2 7 -12 20 -22 28 -10 9 -15 23
-13 33 4 13 -1 18 -21 18 -26 0 -39 -28 -13 -28 6 0 4 -5 -5 -11 -10 -5 -18
-16 -18 -23 0 -8 -6 -19 -13 -25 -11 -8 -17 -5 -26 16 l-12 26 -15 -27 c-9
-20 -14 -61 -14 -133 l0 -104 58 3 57 3 6 55 6 55 1 -62 c2 -60 16 -89 32 -63
5 8 16 9 30 5 18 -6 27 -2 40 16 l18 22 168 -11 c93 -7 177 -12 187 -12 10 0
68 -51 131 -116 l113 -116 294 -5 c162 -3 301 -9 309 -13 27 -15 -51 -22 -203
-18 -127 3 -147 1 -147 -12 0 -13 12 -16 68 -14 64 2 65 2 17 -5 -44 -7 -38
-8 55 -12 58 -2 128 -3 157 -1 50 2 52 1 58 -28 6 -29 9 -30 60 -30 l52 0 8
191 c6 153 10 192 22 196 31 12 36 -14 34 -201 l-2 -185 33 -5 c68 -10 209
-21 214 -17 2 2 -3 12 -12 22 -10 11 -14 31 -12 56 3 35 6 38 36 41 l33 3 -6
57 c-4 31 -11 75 -15 97 -5 23 -5 44 0 49 5 5 81 8 170 8 124 0 165 -3 174
-13 7 -8 23 -54 35 -104 13 -49 27 -95 32 -101 5 -6 43 -14 84 -18 42 -4 82
-9 90 -13 20 -7 20 -86 1 -102 -10 -8 -12 -21 -6 -47 4 -19 5 -44 2 -56 -5
-20 -3 -21 54 -14 32 4 75 8 95 10 53 5 59 12 59 67 0 27 5 49 10 49 6 0 10
-6 10 -12 0 -10 2 -10 8 -1 4 7 7 51 6 98 -2 57 1 83 8 79 6 -4 14 -1 18 5 7
13 182 17 201 5 6 -3 8 -17 4 -33 -4 -14 -7 -82 -6 -151 2 -173 -9 -165 247
-175 107 -4 198 -4 201 -1 4 3 -23 6 -58 7 -51 0 -59 2 -40 10 13 5 31 7 40 5
23 -7 210 -11 216 -4 3 2 10 31 15 64 17 95 18 99 44 127 30 32 49 34 76 7 15
-15 20 -34 21 -72 0 -29 4 -73 8 -98 7 -39 9 -41 10 -12 0 17 2 32 4 32 1 1
40 3 87 6 47 3 91 7 98 9 25 9 10 23 -30 28 -33 4 -50 14 -75 43 -32 36 -46
94 -23 94 6 0 10 7 10 16 0 9 9 47 21 84 25 83 22 121 -8 135 -30 13 -29 25 2
25 17 0 25 6 26 18 4 64 6 126 14 458 7 314 6 371 -6 373 -8 1 -155 7 -327 14
-258 10 -314 15 -322 27 -9 14 -14 64 -11 101 2 14 -26 35 -35 27 -1 -2 -5
-37 -8 -78 -2 -41 -5 -79 -5 -83 -1 -5 -5 -5 -11 -2 -5 3 -10 0 -10 -7 -1 -8
-6 -6 -15 6 -8 10 -24 24 -37 30 -12 6 -27 26 -32 44 -5 17 -14 32 -21 32 -24
0 -95 103 -81 118 3 3 22 -12 41 -34 33 -37 35 -38 49 -20 14 18 15 17 14 -5
-1 -13 -5 -29 -9 -34 -5 -6 4 -16 21 -23 16 -7 32 -22 35 -33 4 -10 15 -24 26
-29 16 -9 19 -7 19 15 0 14 -5 25 -11 25 -7 0 -9 9 -6 21 4 15 -1 23 -20 30
-16 6 -23 14 -19 24 3 8 2 15 -2 15 -14 0 -82 99 -82 119 0 10 -6 24 -14 30
-8 7 -20 35 -26 64 -7 29 -16 57 -21 62 -10 13 -16 236 -7 250 3 6 7 50 7 99
l1 88 -25 -4 c-27 -6 -60 13 -60 34 0 7 -10 12 -23 11 -14 -2 -22 3 -22 13 0
11 5 14 16 10 8 -3 24 -2 33 4 11 6 31 6 50 0 52 -15 50 15 -3 38 -20 9 -32
10 -40 2 -12 -12 -46 -13 -46 -1 0 5 -15 5 -35 1 -25 -6 -38 -4 -46 6 -11 14
-10 15 14 18 29 3 11 123 -33 223 l-19 43 -202 -2 c-190 -3 -202 -4 -213 -23
-6 -11 -18 -31 -27 -45 -9 -14 -24 -56 -34 -95 -10 -38 -22 -75 -27 -82 -5 -6
-9 -20 -8 -30 4 -30 0 -43 -10 -43 -5 0 -10 7 -10 15 0 12 -16 15 -83 15 l-84
0 5 55 4 55 -46 21 c-70 30 -191 29 -248 -3 l-43 -23 -1 -219 0 -219 28 -16
c25 -14 28 -21 26 -56 -2 -37 0 -40 27 -46 17 -4 71 -7 122 -8 91 -1 117 -11
94 -34 -13 -13 -15 -31 -2 -23 5 3 8 -12 7 -34 0 -22 -6 -42 -13 -45 -7 -2
-13 -11 -13 -18 0 -10 -12 -13 -46 -12 -55 3 -73 -12 -135 -114 -11 -19 -25
-27 -53 -29 -35 -3 -37 -5 -32 -28 5 -20 0 -30 -23 -50 -25 -21 -29 -30 -24
-55 5 -24 2 -29 -15 -29 -11 0 -22 -8 -25 -20 -9 -34 -31 -23 -92 49 -33 39
-65 70 -72 70 -17 1 -34 60 -27 96 7 40 -13 220 -28 244 -13 22 11 110 78 279
42 106 120 271 133 282 8 7 111 206 111 215 0 14 -37 -40 -65 -95 -40 -79 -76
-131 -87 -124 -5 3 -14 -8 -21 -25 -6 -17 -14 -31 -18 -31 -4 0 -10 -15 -13
-34 -4 -19 -13 -39 -21 -46 -8 -7 -15 -21 -15 -31 0 -23 -21 -69 -32 -69 -4 0
-8 -12 -8 -26 0 -14 -6 -38 -14 -52 -8 -15 -18 -40 -22 -57 -3 -16 -8 -25 -11
-19 -7 19 57 235 92 309 18 39 35 92 38 118 2 26 3 46 1 44 -2 -2 -28 -68 -59
-148 -57 -150 -69 -154 -35 -10 11 46 18 86 15 89 -3 3 -5 -2 -5 -11 0 -9 -5
-17 -11 -17 -7 0 -9 13 -5 38 5 32 4 34 -5 12 -5 -13 -8 -34 -5 -46 4 -14 0
-24 -10 -28 -13 -5 -15 2 -9 52 11 103 28 192 37 192 4 0 8 -14 8 -32 0 -23 3
-29 11 -21 6 6 9 23 7 39 -3 28 -5 29 -69 32 l-66 3 -1 -43 c-1 -30 1 -39 8
-28 17 27 21 3 14 -72 -4 -40 -9 -67 -11 -60 -7 20 -23 3 -23 -25 0 -45 -11
-18 -19 48 -7 58 -9 62 -19 39 -10 -24 -11 -24 -11 12 -1 20 -5 39 -10 42 -4
3 -11 24 -15 46 -4 25 -12 40 -21 40 -11 0 -12 -5 -5 -26 13 -32 13 -97 1 -89
-5 3 -11 -3 -13 -12 -5 -22 -38 70 -38 104 0 13 -5 23 -10 23 -12 0 -5 -54 13
-107 6 -18 7 -36 3 -40 -5 -5 -11 -2 -13 5 -4 10 -8 10 -19 1 -22 -18 -62 4
-70 38 -9 34 -34 75 -34 53 1 -8 7 -26 15 -40 26 -45 19 -54 -56 -78 l-70 -23
-20 23 c-23 25 -16 8 13 -34 10 -14 18 -36 18 -48 0 -20 -4 -21 -67 -18 -52 2
-68 6 -68 18 -1 28 -28 131 -37 136 -4 3 -8 14 -8 24 0 10 -6 20 -12 23 -10 3
-8 10 5 23 18 19 20 18 68 -35 28 -29 52 -52 54 -49 2 2 -13 32 -33 66 l-36
62 -383 0 -383 0 0 -231z m1550 -13 c0 -3 -4 -8 -10 -11 -5 -3 -10 -1 -10 4 0
6 5 11 10 11 6 0 10 -2 10 -4z m-29 -53 c-12 -20 -14 -14 -5 12 4 9 9 14 11
11 3 -2 0 -13 -6 -23z m-262 -81 c1 -13 -3 -20 -9 -17 -5 3 -10 23 -9 43 0 30
2 33 9 17 5 -11 9 -30 9 -43z m770 4 c14 -3 50 -8 80 -12 l53 -6 -26 -25 c-30
-28 -33 -40 -9 -45 21 -4 25 -49 6 -63 -12 -9 -12 -16 1 -46 11 -27 12 -39 4
-47 -18 -18 -41 -15 -34 3 3 9 0 25 -7 35 -15 25 -87 29 -87 5 0 -8 7 -15 15
-15 8 0 15 -5 15 -11 0 -6 9 -8 20 -4 15 5 20 2 20 -10 0 -14 -6 -16 -35 -11
-28 6 -35 4 -35 -9 0 -9 -5 -13 -10 -10 -7 4 -10 57 -9 141 0 75 -2 138 -5
141 -3 4 -6 16 -5 27 1 18 3 17 12 -6 7 -17 20 -29 36 -32z m147 8 c-5 -13
-10 -14 -18 -6 -6 6 -8 18 -4 28 5 13 10 14 18 6 6 -6 8 -18 4 -28z m-915
-117 c-8 -8 -11 0 -10 29 1 39 1 39 11 11 7 -21 7 -32 -1 -40z m1514 -17 c3
-5 1 -10 -4 -10 -6 0 -11 5 -11 10 0 6 2 10 4 10 3 0 8 -4 11 -10z m-1533
-231 c2 -56 0 -103 -4 -106 -9 -5 -11 12 -8 73 1 23 -3 45 -9 49 -7 4 -11 -4
-11 -20 0 -16 -4 -24 -10 -20 -6 4 -10 33 -9 66 2 54 4 59 25 59 22 0 23 -4
26 -101z m748 61 c3 -14 14 -27 24 -28 14 -3 17 0 12 13 -5 14 -2 16 18 11 16
-4 26 -1 30 10 3 8 10 12 16 9 19 -12 10 -30 -28 -52 -37 -22 -37 -22 -9 -23
15 0 27 -5 27 -11 0 -11 -73 -4 -95 9 -5 4 -19 6 -30 7 -24 0 -32 34 -15 65
15 27 42 22 50 -10z m-704 -47 c-10 -26 -18 -8 -9 23 5 21 8 24 11 11 2 -10 1
-25 -2 -34z m-936 -87 c0 -8 -4 -18 -10 -21 -5 -3 -10 3 -10 14 0 12 5 21 10
21 6 0 10 -6 10 -14z m918 -71 c-12 -27 -34 -35 -24 -9 3 9 6 20 6 25 0 5 7 9
15 9 12 0 13 -4 3 -25z m1710 -133 c6 -18 -15 -14 -22 4 -4 10 -1 14 6 12 6
-2 14 -10 16 -16z m69 -288 c-7 -8 -47 28 -47 43 0 12 7 8 26 -12 14 -15 23
-29 21 -31z m-79 -29 c-3 -3 -9 2 -12 12 -6 14 -5 15 5 6 7 -7 10 -15 7 -18z
m-87 -92 c6 -87 3 -112 -16 -117 -11 -3 -26 1 -34 9 -13 12 -12 15 2 21 21 8
22 24 2 24 -7 0 -19 8 -24 18 -8 13 -10 3 -9 -38 2 -61 -5 -82 -26 -74 -21 8
-28 -12 -10 -27 14 -11 18 -10 30 5 7 10 15 22 16 26 2 4 20 10 41 13 l37 6 0
-93 c0 -51 -3 -134 -6 -184 l-7 -92 -30 0 c-27 0 -29 2 -21 28 10 36 8 78 -7
127 -13 40 -52 84 -76 85 -20 0 -15 20 5 20 15 0 14 3 -5 18 -21 17 -22 18
-14 130 1 7 15 12 34 12 26 1 29 2 15 11 -25 14 -3 62 24 53 10 -3 18 -1 18 5
0 14 59 28 61 14z m-1493 -178 c-3 -48 -4 -50 -35 -53 l-33 -3 0 56 c0 31 5
65 11 77 11 20 11 20 35 -3 21 -20 24 -31 22 -74z m1047 85 c3 -5 -1 -10 -10
-10 -9 0 -13 5 -10 10 3 6 8 10 10 10 2 0 7 -4 10 -10z m165 -26 c0 -8 -5 -12
-10 -9 -6 4 -8 11 -5 16 9 14 15 11 15 -7z m-160 -38 c0 -11 -19 -15 -25 -6
-3 5 1 10 9 10 9 0 16 -2 16 -4z m-36 -31 c-7 -16 -39 -21 -48 -6 -8 12 4 21
30 21 17 0 22 -4 18 -15z m296 11 c0 -9 -40 -13 -46 -5 -3 5 6 9 20 9 14 0 26
-2 26 -4z m450 -706 c0 -5 -15 -10 -32 -11 -18 -1 -44 -4 -58 -8 -26 -8 -70 6
-70 21 0 4 36 8 80 8 47 0 80 -4 80 -10z m71 -11 c11 -5 17 -14 14 -20 -6 -9
-55 -13 -55 -5 0 2 -3 11 -6 20 -7 19 17 22 47 5z"/>
<path d="M2766 5534 c-4 -10 -1 -14 6 -12 15 5 23 28 10 28 -5 0 -13 -7 -16
-16z"/>
<path d="M3294 7158 c-10 -24 -31 -55 -46 -69 -36 -33 -35 -44 2 -61 31 -13
37 -23 21 -32 -5 -3 -12 -18 -16 -33 -3 -15 -11 -33 -17 -40 -5 -6 -11 -88
-14 -182 -2 -94 -9 -182 -14 -196 -6 -15 -10 -61 -10 -103 0 -66 -7 -111 -37
-240 -4 -18 -2 -21 13 -15 11 3 21 10 24 14 3 5 156 10 340 11 l335 3 13 280
c6 154 16 315 20 358 5 51 4 81 -3 85 -10 7 -33 61 -42 100 -5 20 -2 22 31 22
41 0 43 6 25 90 l-11 50 -297 0 -298 0 -19 -42z"/>
<path d="M5329 7128 c0 -40 -1 -91 -3 -113 -2 -22 -5 -101 -7 -175 l-4 -135
37 -6 c20 -3 49 -14 64 -23 l27 -18 -6 -129 -6 -129 140 0 c135 0 141 1 162
24 40 44 67 84 67 99 0 22 27 40 47 32 16 -6 16 -8 -5 -23 l-23 -18 40 -24
c22 -14 45 -37 50 -52 9 -26 14 -28 65 -28 l54 0 4 58 c2 31 0 59 -4 60 -5 2
-8 19 -8 38 0 30 3 34 26 34 16 0 24 5 21 13 -2 6 -11 11 -19 9 -20 -3 -35 48
-17 58 6 5 8 13 4 20 -6 10 -2 12 16 7 13 -4 30 -7 37 -7 6 0 12 -4 12 -10 0
-5 -9 -10 -20 -10 -11 0 -20 -4 -20 -9 0 -6 15 -8 33 -7 17 2 22 1 10 -1 -30
-6 -29 -21 2 -29 32 -8 33 -24 1 -24 -20 0 -36 -16 -36 -36 0 -9 37 -3 47 7
17 17 34 7 19 -13 -9 -13 -20 -15 -53 -9 -40 8 -40 7 -34 -18 5 -16 16 -27 29
-29 27 -4 29 -19 3 -27 -11 -3 -22 -12 -25 -20 -8 -21 15 -31 26 -11 5 10 21
16 41 15 l32 0 -32 -16 c-40 -20 -45 -57 -10 -67 22 -6 22 -7 3 -21 -11 -8
-26 -15 -33 -15 -19 0 -16 -27 5 -39 9 -6 11 -11 5 -11 -22 0 -14 -16 9 -17
12 -1 28 -9 36 -17 13 -13 11 -18 -14 -40 -27 -24 -28 -25 -7 -26 29 0 38 -17
13 -25 -11 -3 -20 -12 -20 -20 0 -7 -6 -16 -12 -19 -7 -3 2 -3 20 0 39 7 45
-16 10 -40 -22 -16 -22 -16 10 -16 42 0 41 -12 -3 -36 -45 -24 -44 -36 2 -32
29 2 39 -1 41 -14 2 -11 -6 -18 -27 -23 -36 -8 -39 -15 -11 -33 28 -17 25 -39
-6 -46 -33 -9 -23 -20 16 -21 17 0 30 -4 30 -10 -1 -5 -10 -10 -20 -9 -16 0
-18 -4 -14 -23 5 -19 2 -23 -17 -23 -22 0 -22 -1 6 -16 45 -23 55 -37 23 -29
-22 6 -28 4 -28 -9 0 -9 -7 -19 -15 -22 -20 -8 -19 -36 1 -32 28 5 27 -20 0
-38 -32 -20 -33 -38 -3 -59 19 -13 20 -17 7 -25 -20 -13 -30 -12 -30 1 0 5 -4
7 -10 4 -6 -4 -4 -17 5 -36 9 -16 11 -29 5 -29 -5 0 -10 5 -10 11 0 5 -5 7
-11 4 -6 -4 -8 -10 -5 -13 3 -3 -1 -13 -9 -22 -12 -13 -13 -23 -5 -44 5 -15 8
-32 5 -37 -9 -13 25 -203 37 -210 13 -8 2 -14 -49 -28 -24 -7 -43 -16 -43 -20
0 -13 -77 -51 -105 -51 -13 0 -44 15 -68 34 -46 35 -57 36 -57 4 0 -10 -7 -18
-15 -18 -8 0 -15 -4 -15 -8 0 -4 -24 -8 -52 -7 -42 0 -65 8 -110 35 -32 19
-58 41 -58 48 0 7 -10 16 -22 21 -23 9 -23 9 4 21 15 7 31 22 35 34 9 27 5
319 -5 327 -15 13 -109 40 -162 46 -46 5 -132 31 -107 33 4 0 2 6 -5 14 -7 8
-16 12 -20 10 -9 -6 -111 36 -119 49 -6 9 -50 -17 -93 -55 -11 -10 -23 -18
-26 -18 -4 0 -13 -26 -19 -57 -7 -32 -19 -65 -26 -73 -7 -8 -15 -35 -18 -59
-3 -24 -10 -47 -15 -50 -5 -3 -9 -13 -10 -21 0 -8 -3 -32 -6 -52 -5 -32 -3
-38 12 -38 10 0 22 -3 25 -7 10 -10 -33 -53 -53 -53 -9 0 -20 -3 -23 -7 -4 -3
-41 -6 -83 -6 -73 0 -78 -2 -110 -34 -21 -20 -31 -39 -27 -48 3 -10 0 -15 -8
-13 -9 2 -15 -8 -17 -24 -4 -30 -19 -37 -28 -14 -3 8 -19 18 -35 21 -16 4 -29
10 -29 15 0 4 -17 6 -37 4 -53 -5 -70 3 -78 34 -6 23 -8 25 -18 11 -9 -12 -22
-15 -57 -10 l-45 6 4 288 c4 323 6 315 -67 250 -72 -64 -93 -135 -101 -336
l-7 -167 -45 -44 c-24 -24 -57 -60 -74 -80 -21 -25 -38 -36 -57 -36 -19 0 -28
-5 -28 -16 0 -8 4 -13 9 -9 5 3 12 1 16 -5 3 -5 -2 -10 -11 -10 -16 0 -16 -1
0 -19 15 -16 15 -19 1 -24 -22 -9 -19 -37 5 -37 11 0 20 -7 20 -15 0 -8 -5
-15 -11 -15 -6 0 -17 -7 -25 -15 -9 -8 -11 -15 -5 -15 5 0 11 -8 13 -17 3 -19
38 -25 50 -9 13 18 36 -15 35 -49 -1 -43 3 -47 47 -47 33 0 36 -3 42 -35 4
-24 3 -38 -6 -43 -8 -5 -10 -21 -6 -51 3 -24 7 -52 8 -61 1 -10 6 -18 10 -18
12 0 9 35 -4 48 -9 9 4 12 60 12 l72 0 0 49 c0 34 4 51 15 55 10 3 15 19 15
44 0 22 6 44 13 49 15 12 514 11 611 -1 l69 -9 -6 39 c-4 21 -10 56 -13 77
l-7 37 114 -1 c63 -1 152 -4 199 -7 l85 -7 19 -72 18 -71 49 -6 c27 -3 72 -9
100 -12 56 -7 59 -19 3 -16 -23 2 -36 -2 -40 -13 -9 -21 -31 -19 -37 5 -3 11
-11 20 -19 20 -45 -1 -44 -51 2 -70 17 -7 64 -11 112 -9 l83 3 -1 -77 -1 -77
56 0 56 0 2 41 c2 26 -1 39 -8 37 -13 -4 -75 50 -66 58 3 3 21 1 41 -4 l36
-10 0 43 c0 43 -1 44 -36 51 -19 3 -51 4 -70 1 -19 -3 -34 -2 -34 3 0 5 33 10
72 12 l73 3 8 60 c5 33 10 62 13 64 2 2 12 -7 23 -20 13 -15 20 -39 21 -65 l0
-41 111 -8 c120 -7 138 -17 36 -19 -38 -1 -71 -7 -81 -15 -14 -12 -16 -11 -16
3 0 24 -44 17 -48 -8 -2 -11 0 -16 6 -12 6 3 13 2 17 -3 3 -5 -2 -14 -10 -19
-13 -7 -15 -23 -13 -83 l3 -74 94 -3 94 -4 -5 87 c-4 86 -4 86 24 103 15 9 28
19 28 23 0 4 9 9 20 12 30 8 24 -6 -13 -27 l-32 -20 50 -7 c28 -4 91 -8 141
-8 l91 -1 7 53 c3 28 6 71 6 95 l0 42 78 2 c42 1 93 2 112 2 54 0 178 -12 188
-18 5 -3 12 -29 15 -57 4 -29 12 -56 19 -61 7 -4 33 -8 58 -8 57 0 83 -15 44
-24 -15 -4 -30 -3 -33 3 -4 6 -12 7 -21 1 -8 -6 -10 -10 -5 -10 6 0 3 -4 -5
-10 -8 -5 -12 -12 -8 -15 12 -12 70 -8 78 6 5 7 12 11 15 7 4 -3 1 -15 -6 -26
-10 -16 -10 -26 0 -48 10 -24 10 -30 -8 -48 -69 -72 -67 -67 -49 -126 10 -31
18 -40 36 -40 12 0 25 7 28 15 5 11 10 13 19 5 15 -12 45 -3 45 14 0 14 47 42
56 33 8 -7 -8 -35 -21 -36 -5 0 -12 -10 -13 -22 -3 -17 0 -20 13 -15 9 3 27 6
40 6 12 0 22 6 22 13 -1 6 6 34 13 60 12 41 19 49 44 54 l29 6 -23 17 c-29 22
-18 40 25 40 69 0 90 -32 34 -52 l-32 -11 27 -14 c17 -9 26 -22 26 -38 0 -23
-4 -25 -45 -25 -25 0 -45 -3 -45 -6 0 -10 50 -54 61 -54 15 0 59 47 59 62 0 7
-4 29 -9 49 -6 25 -4 41 5 54 12 16 14 155 14 782 l0 763 -81 -5 c-45 -2 -84
-7 -87 -9 -3 -3 0 -12 6 -19 7 -8 9 -17 5 -21 -4 -3 3 -13 15 -22 13 -9 22
-26 22 -40 0 -13 6 -27 14 -30 22 -8 21 -163 -1 -171 -9 -4 -21 1 -27 9 -9 12
-16 14 -30 6 -13 -7 -21 -7 -26 2 -10 16 -31 4 -24 -15 3 -7 -2 -25 -11 -38
-18 -28 -43 -27 -71 4 -9 10 -25 19 -36 19 -12 0 -18 8 -19 23 -1 17 -3 15
-12 -11 -10 -32 -11 -33 -56 -26 -25 3 -51 13 -57 20 -10 12 -13 12 -18 -2 -6
-15 -8 -15 -24 -1 -20 18 -71 12 -79 -9 -7 -20 -31 -17 -43 5 -6 12 -17 17
-28 14 -23 -6 -55 24 -48 43 6 17 -10 19 -20 3 -3 -6 -1 -15 6 -19 9 -6 9 -9
1 -15 -7 -4 -17 -2 -24 3 -7 5 -29 9 -50 8 -29 -1 -37 3 -37 17 0 9 -7 17 -15
17 -9 0 -16 10 -17 28 -5 77 -7 172 -11 437 -2 160 -8 302 -12 316 -8 33 2 41
73 50 30 4 56 10 59 12 5 5 32 382 33 450 l0 38 -188 -2 -188 -3 -1 -25 c-1
-46 -3 -51 -17 -51 -8 0 -17 -6 -19 -12 -4 -10 -8 -9 -16 2 -9 12 -11 11 -11
-8 0 -16 7 -26 20 -29 11 -3 20 -9 20 -13 0 -14 -27 -30 -42 -25 -11 4 -17 -2
-20 -19 -4 -18 -1 -26 8 -26 8 0 14 8 14 17 0 9 3 13 8 9 30 -31 -17 -87 -77
-93 -40 -4 -56 -13 -23 -13 27 0 28 -16 2 -30 -17 -9 -20 -7 -26 17 -4 16 -12
31 -18 35 -8 5 -7 11 2 20 6 6 12 31 12 54 0 29 5 44 16 48 11 4 15 16 13 40
-2 21 3 39 14 50 9 10 17 26 17 37 0 18 -11 19 -320 19 l-320 0 -1 -72z m761
-128 c0 -5 -4 -10 -10 -10 -5 0 -10 5 -10 10 0 6 5 10 10 10 6 0 10 -4 10 -10z
m-110 -178 c0 -7 -4 -10 -10 -7 -5 3 -10 16 -10 28 0 18 2 19 10 7 5 -8 10
-21 10 -28z m240 -602 c0 -5 -9 -10 -21 -10 -11 0 -17 5 -14 10 3 6 13 10 21
10 8 0 14 -4 14 -10z m-810 -855 c0 -4 -67 -35 -76 -35 -13 0 -1 29 14 33 25
7 62 8 62 2z m80 -35 c0 -5 -4 -10 -10 -10 -5 0 -10 5 -10 10 0 6 5 10 10 10
6 0 10 -4 10 -10z m-165 -20 c3 -5 1 -10 -4 -10 -6 0 -11 5 -11 10 0 6 2 10 4
10 3 0 8 -4 11 -10z m65 0 c0 -5 -2 -10 -4 -10 -2 0 -12 -3 -20 -6 -12 -5 -15
-2 -10 10 7 17 34 22 34 6z m-382 -30 c3 -21 2 -22 -12 -11 -11 9 -16 10 -16
2 0 -6 -4 -11 -10 -11 -11 0 -14 33 -3 44 14 14 38 0 41 -24z m352 -40 c0 -5
-7 -10 -15 -10 -8 0 -15 5 -15 10 0 6 7 10 15 10 8 0 15 -4 15 -10z m55 -10
c-3 -5 -10 -10 -16 -10 -5 0 -9 5 -9 10 0 6 7 10 16 10 8 0 12 -4 9 -10z m-99
-27 c-10 -10 -19 5 -10 18 6 11 8 11 12 0 2 -7 1 -15 -2 -18z m-676 -266 c0
-7 10 -23 21 -36 l21 -23 -44 3 c-24 2 -50 -1 -57 -5 -7 -5 -18 -3 -24 3 -13
13 20 42 39 34 7 -2 15 5 19 16 7 23 25 29 25 8z m1520 -178 c0 -6 -4 -7 -10
-4 -5 3 -10 11 -10 16 0 6 5 7 10 4 6 -3 10 -11 10 -16z m125 11 c4 -6 -5 -10
-19 -10 -14 0 -26 5 -26 10 0 6 9 10 19 10 11 0 23 -4 26 -10z m690 -30 c-27
-12 -35 -12 -35 0 0 6 12 10 28 9 24 0 25 -1 7 -9z m111 -6 c-4 -11 1 -18 14
-21 26 -7 21 -27 -7 -31 -12 -2 -26 -16 -33 -33 -7 -16 -19 -29 -26 -29 -18 0
-18 18 0 36 8 7 17 32 21 54 4 26 12 40 22 40 10 0 13 -6 9 -16z m-179 -100
c-9 -9 -28 6 -21 18 4 6 10 6 17 -1 6 -6 8 -13 4 -17z m83 11 c17 -21 4 -32
-20 -17 -14 9 -20 9 -23 -1 -2 -7 -8 -8 -13 -4 -5 5 -1 15 10 23 25 18 31 18
46 -1z m176 -12 c-10 -10 -19 5 -10 18 6 11 8 11 12 0 2 -7 1 -15 -2 -18z
m-1450 -60 c-10 -10 -19 5 -10 18 6 11 8 11 12 0 2 -7 1 -15 -2 -18z m1167 7
c-3 -11 -9 -20 -15 -20 -5 0 -4 9 2 20 6 11 12 20 14 20 2 0 2 -9 -1 -20z m67
-15 c0 -8 -7 -15 -15 -15 -8 0 -15 7 -15 15 0 8 7 15 15 15 8 0 15 -7 15 -15z"/>
<path d="M7072 7173 c0 -16 -2 -59 -6 -98 -3 -38 -8 -203 -11 -365 -3 -162 -9
-344 -15 -404 -5 -60 -7 -113 -4 -117 3 -5 41 -9 85 -9 l79 0 0 510 0 510 -65
0 c-64 0 -64 0 -63 -27z"/>
<path d="M1153 7153 c0 -24 4 -43 9 -43 10 0 9 26 -2 60 -7 21 -8 17 -7 -17z"/>
<path d="M4410 7183 c-87 -8 -244 -63 -254 -89 -4 -10 9 -22 39 -36 27 -13 45
-29 45 -39 0 -21 -27 -86 -38 -93 -8 -5 -24 -174 -27 -286 -1 -46 17 -80 42
-80 8 0 13 -13 13 -37 0 -63 3 -64 141 -61 l124 3 9 58 c7 51 11 57 32 57 16
0 25 7 29 23 3 12 7 141 8 287 l2 265 -25 11 c-30 14 -93 22 -140 17z"/>
<path d="M1070 7155 c0 -8 4 -15 10 -15 5 0 7 7 4 15 -4 8 -8 15 -10 15 -2 0
-4 -7 -4 -15z"/>
<path d="M6046 7151 c-4 -5 -2 -12 3 -15 5 -4 12 -2 15 3 4 5 2 12 -3 15 -5 4
-12 2 -15 -3z"/>
<path d="M1242 7120 c0 -14 2 -19 5 -12 2 6 2 18 0 25 -3 6 -5 1 -5 -13z"/>
<path d="M1586 7103 c-6 -14 -5 -15 5 -6 7 7 10 15 7 18 -3 3 -9 -2 -12 -12z"/>
<path d="M1288 7055 c-3 -14 -1 -28 3 -31 5 -3 9 9 9 25 0 38 -6 40 -12 6z"/>
<path d="M1427 7051 c-4 -17 -3 -21 5 -13 5 5 8 16 6 23 -3 8 -7 3 -11 -10z"/>
<path d="M5960 7061 c0 -6 5 -13 10 -16 6 -3 10 1 10 9 0 9 -4 16 -10 16 -5 0
-10 -4 -10 -9z"/>
<path d="M5960 6966 c0 -18 17 -29 30 -21 8 5 7 11 -1 21 -15 18 -29 18 -29 0z"/>
<path d="M139 6513 c-1 -9 0 -29 11 -323 l7 -195 1 247 c1 135 5 253 8 262 4
11 1 16 -10 16 -9 0 -16 -3 -17 -7z"/>
<path d="M150 5905 c-2 -38 -3 -79 -1 -90 1 -11 2 -58 2 -105 0 -74 1 -80 10
-49 7 23 7 84 1 175 -8 116 -10 127 -12 69z"/>
<path d="M6105 5930 c-3 -5 1 -10 9 -10 9 0 16 5 16 10 0 6 -4 10 -9 10 -6 0
-13 -4 -16 -10z"/>
<path d="M857 5863 c-14 -4 -17 -11 -13 -28 4 -14 1 -25 -7 -28 -8 -3 -3 -12
14 -28 51 -46 71 -60 77 -54 15 14 6 85 -14 111 -22 30 -30 34 -57 27z"/>
<path d="M4607 5728 c-9 -6 -8 -10 3 -18 13 -9 13 -12 -2 -21 -22 -12 -23 -29
-3 -29 9 0 12 -6 8 -17 -5 -12 -2 -15 10 -10 11 4 17 1 17 -8 0 -9 6 -12 17
-8 12 5 15 2 11 -9 -5 -11 1 -15 23 -14 26 1 29 4 29 37 0 28 -5 38 -19 42
-14 3 -18 11 -14 26 3 12 1 21 -6 21 -6 0 -11 -5 -11 -11 0 -5 -4 -8 -10 -4
-5 3 -7 11 -4 18 5 14 -29 18 -49 5z"/>
<path d="M136 5543 c9 -78 14 -79 14 -5 0 38 -4 62 -11 62 -7 0 -8 -19 -3 -57z"/>
<path d="M4775 5270 c3 -5 8 -10 11 -10 2 0 4 5 4 10 0 6 -5 10 -11 10 -5 0
-7 -4 -4 -10z"/>
<path d="M1 4993 c-1 -18 4 -33 9 -33 12 0 12 17 0 45 -7 17 -9 15 -9 -12z"/>
<path d="M520 4955 c18 -22 5 -30 -25 -17 -29 13 -33 1 -8 -23 11 -12 25 -15
47 -10 17 3 43 6 59 6 39 0 33 12 -18 37 -54 26 -73 29 -55 7z"/>
<path d="M3980 4830 c0 -5 5 -10 10 -10 6 0 10 5 10 10 0 6 -4 10 -10 10 -5 0
-10 -4 -10 -10z"/>
<path d="M4309 4794 c-11 -29 -12 -88 -2 -98 4 -3 6 -29 4 -56 -4 -72 15 -110
55 -110 16 0 39 7 50 15 26 20 41 19 47 -5 5 -18 14 -20 83 -20 43 0 140 -5
217 -11 76 -6 142 -8 145 -4 4 4 1 10 -5 12 -18 7 -16 43 2 43 9 0 15 9 15 24
0 13 -7 26 -15 30 -11 4 -15 21 -15 59 0 48 3 55 26 66 17 8 24 17 20 27 -3 9
-6 19 -6 24 0 14 -50 21 -97 14 -43 -6 -45 -8 -40 -34 3 -15 1 -32 -6 -39 -19
-19 -27 -13 -21 17 5 28 -10 62 -22 49 -4 -4 -2 -18 4 -32 10 -21 9 -27 -3
-31 -21 -8 -37 5 -30 25 9 28 -33 57 -88 59 -27 2 -55 -2 -62 -8 -7 -6 -16 -7
-19 -2 -3 5 -55 9 -116 10 -109 1 -111 0 -121 -24z m568 -96 c-3 -8 -6 -5 -6
6 -1 11 2 17 5 13 3 -3 4 -12 1 -19z"/>
<path d="M3617 4707 c-26 -50 -34 -98 -21 -131 4 -12 20 -16 55 -16 l49 0 -5
38 c-2 20 -7 58 -10 83 -3 26 -14 54 -23 62 -16 15 -19 12 -45 -36z"/>
<path d="M1918 4706 l4 -45 89 -3 89 -3 -3 35 c-2 34 -3 34 -67 46 -36 7 -76
13 -90 13 -24 1 -25 -2 -22 -43z"/>
<path d="M618 4724 c-18 -18 -2 -21 97 -22 59 0 105 3 105 9 0 5 -21 9 -47 9
-27 0 -70 3 -98 6 -27 3 -53 3 -57 -2z"/>
<path d="M2217 4703 c-3 -16 -3 -31 0 -35 2 -5 49 -8 104 -8 l99 0 0 35 0 35
-99 0 -99 0 -5 -27z"/>
<path d="M1200 4710 c-95 -4 -115 -8 -118 -21 -4 -21 42 -29 166 -29 83 0 92
2 92 19 0 32 -21 36 -140 31z"/>
<path d="M2165 4710 c3 -5 8 -10 11 -10 2 0 4 5 4 10 0 6 -5 10 -11 10 -5 0
-7 -4 -4 -10z"/>
<path d="M6730 4710 c0 -5 5 -10 10 -10 6 0 10 5 10 10 0 6 -4 10 -10 10 -5 0
-10 -4 -10 -10z"/>
<path d="M900 4690 c0 -17 7 -20 45 -20 32 0 45 4 45 14 0 17 -22 26 -61 26
-22 0 -29 -5 -29 -20z"/>
<path d="M4050 4661 c0 -5 -8 -12 -17 -14 -14 -4 -12 -5 5 -6 13 -1 22 5 22
14 0 8 -2 15 -5 15 -3 0 -5 -4 -5 -9z"/>
<path d="M6053 4646 c-11 -16 -9 -107 2 -116 6 -5 53 -10 105 -11 l95 -2 0 64
0 64 -98 5 c-55 3 -101 1 -104 -4z"/>
<path d="M3 4606 c1 -29 5 -35 26 -39 52 -9 121 -8 121 2 0 6 -26 11 -57 13
-57 3 -61 6 -48 41 6 13 2 17 -18 17 -22 0 -25 -4 -24 -34z"/>
<path d="M778 4633 c7 -3 16 -2 19 1 4 3 -2 6 -13 5 -11 0 -14 -3 -6 -6z"/>
<path d="M2342 4631 c-10 -6 -7 -10 13 -15 30 -8 65 0 65 15 0 11 -60 12 -78
0z"/>
<path d="M361 4597 c-8 -10 -33 -17 -64 -19 -29 -2 -52 -8 -55 -15 -5 -16 145
-18 168 -3 13 8 13 10 -1 10 -9 0 -20 9 -25 21 -9 19 -11 19 -23 6z"/>
<path d="M3980 4575 c0 -36 22 -50 34 -20 3 8 17 15 31 15 18 0 25 5 25 20 0
17 -7 20 -45 20 -45 0 -45 0 -45 -35z"/>
<path d="M4990 4575 c0 -20 6 -24 50 -30 27 -4 69 -4 92 0 l42 7 -47 18 c-25
10 -67 20 -92 23 -42 6 -45 4 -45 -18z"/>
<path d="M5306 4565 c-4 -14 -4 -30 -1 -35 6 -10 207 -14 217 -5 2 3 3 18 0
35 l-4 30 -103 0 c-102 0 -103 0 -109 -25z"/>
<path d="M490 4568 c0 -18 18 -34 28 -24 3 4 -2 14 -11 23 -16 16 -17 16 -17
1z"/>
<path d="M1118 4553 c23 -2 59 -2 80 0 20 2 1 4 -43 4 -44 0 -61 -2 -37 -4z"/>
<path d="M6431 4544 c0 -11 3 -14 6 -6 3 7 2 16 -1 19 -3 4 -6 -2 -5 -13z"/>
<path d="M6483 4550 c-13 -5 -23 -16 -23 -24 0 -7 -8 -17 -17 -21 -15 -6 -13
-9 11 -16 43 -12 91 29 71 61 -7 12 -12 12 -42 0z"/>
<path d="M6560 4541 c0 -6 5 -13 11 -17 6 -3 8 -15 6 -26 -5 -17 -2 -19 21
-15 15 3 35 1 45 -4 13 -7 19 -6 23 6 3 8 17 15 30 15 18 0 24 6 24 21 0 19
-1 19 -16 5 -20 -20 -38 -21 -30 -1 3 9 0 15 -10 15 -8 0 -17 -7 -20 -15 -9
-22 -35 -18 -41 5 -5 20 -43 29 -43 11z"/>
<path d="M4988 4514 c-17 -17 9 -24 88 -24 64 0 85 3 82 12 -5 14 -158 25
-170 12z"/>
<path d="M5348 4483 c28 -2 76 -2 105 0 28 2 5 3 -53 3 -58 0 -81 -1 -52 -3z"/>
<path d="M6050 4471 c0 -12 112 -25 139 -16 44 14 18 25 -59 25 -44 0 -80 -4
-80 -9z"/>
<path d="M5600 4460 c0 -5 5 -10 10 -10 6 0 10 5 10 10 0 6 -4 10 -10 10 -5 0
-10 -4 -10 -10z"/>
<path d="M6637 4443 c-16 -15 -6 -33 18 -33 28 0 34 24 9 34 -19 7 -19 7 -27
-1z"/>
<path d="M6920 4399 c0 -5 19 -9 42 -9 49 0 47 5 -4 13 -21 3 -38 2 -38 -4z"/>
<path d="M2490 4331 c-8 -6 -23 -8 -32 -5 -12 4 -18 0 -18 -11 0 -17 3 -18 68
-35 49 -13 54 -27 13 -43 -29 -11 -41 -31 -41 -73 0 -33 -31 -40 -55 -12 -11
13 -33 30 -49 38 -15 8 -32 24 -36 36 -7 17 -15 20 -39 16 -26 -3 -30 -8 -26
-23 4 -11 2 -19 -5 -19 -7 0 -9 -7 -6 -16 3 -8 1 -24 -4 -35 -6 -10 -15 -44
-21 -75 -8 -45 -8 -59 3 -65 10 -7 8 -12 -10 -25 -22 -15 -22 -17 -5 -30 17
-13 17 -13 -3 -14 -27 0 -40 -27 -16 -32 9 -2 17 -10 18 -18 1 -8 2 -23 2 -32
1 -11 11 -18 25 -19 16 -1 17 -3 5 -6 -15 -4 -15 -8 -5 -26 7 -12 17 -25 22
-29 6 -4 -1 -8 -14 -8 -24 0 -24 0 -5 -15 18 -14 17 -14 -13 -15 -18 0 -33 -4
-33 -10 0 -5 20 -10 45 -10 25 0 45 -4 45 -10 0 -5 -19 -10 -42 -10 -71 0 -83
-20 -13 -21 57 -1 58 -1 26 -11 -26 -7 -31 -12 -20 -19 8 -5 28 -9 44 -10 26
-1 25 -2 -13 -11 -48 -10 -47 -28 1 -29 27 -1 24 -3 -18 -13 -57 -13 -43 -26
28 -26 31 0 38 -3 27 -10 -8 -5 -29 -10 -47 -10 -46 0 -50 -18 -6 -22 l38 -4
-35 -14 c-35 -14 -35 -14 -10 -21 14 -4 40 -7 58 -8 39 -1 43 -21 5 -21 -16 0
-34 -4 -42 -9 -11 -7 -4 -11 25 -16 21 -3 48 -10 59 -15 16 -7 10 -9 -25 -10
-98 -4 -110 -20 -25 -36 l40 -8 -37 -10 c-21 -5 -38 -13 -38 -17 0 -8 52 -19
97 -19 60 0 73 -14 73 -76 0 -39 4 -56 15 -60 8 -4 15 -12 15 -20 0 -21 -17
-17 -23 5 -6 25 -54 17 -62 -10 -11 -33 5 -80 30 -89 17 -6 26 -20 31 -44 3
-19 12 -41 20 -47 12 -10 13 -9 8 4 -3 9 2 37 11 61 17 43 17 47 0 73 -15 22
-7 18 35 -18 54 -46 60 -57 98 -189 10 -35 10 -35 9 15 0 85 -50 241 -104 327
-24 40 -29 63 -14 72 5 3 12 26 15 51 4 25 11 45 17 45 5 0 9 -5 9 -11 0 -6 9
-22 20 -36 11 -14 17 -29 14 -34 -2 -5 3 -20 12 -34 9 -14 17 -38 18 -53 1
-16 7 -27 15 -27 8 0 21 -12 30 -26 28 -46 55 -84 65 -91 5 -3 17 -21 25 -40
12 -25 23 -33 47 -35 24 -2 33 3 48 28 14 23 22 28 39 24 45 -13 64 -28 93
-73 47 -73 48 -77 4 -97 -22 -10 -37 -22 -34 -27 3 -5 1 -14 -4 -21 -18 -23
-22 -112 -6 -142 8 -15 14 -32 14 -37 0 -11 -74 -6 -102 6 -13 6 -18 4 -18 -8
0 -24 -13 -20 -45 14 -32 33 -48 39 -38 14 5 -15 -11 -33 -30 -34 -9 0 -46 81
-67 148 -36 114 -10 -20 43 -218 6 -25 10 -62 9 -82 -2 -20 1 -46 7 -57 10
-17 7 -23 -13 -36 -28 -18 -64 -13 -115 18 -27 16 -35 17 -42 6 -6 -11 -14 -8
-39 16 l-30 29 0 -25 c0 -35 -25 -110 -49 -149 -11 -19 -21 -49 -21 -67 0 -47
-9 -63 -36 -63 -14 0 -35 -7 -49 -16 -13 -8 -29 -14 -37 -13 -20 5 -58 -24
-58 -43 0 -9 -7 -24 -16 -33 -9 -8 -24 -32 -35 -53 -10 -20 -18 -31 -19 -24 0
7 -5 10 -10 7 -6 -4 -8 -10 -6 -14 3 -4 -11 -5 -30 -3 -21 3 -34 0 -34 -7 0
-6 -5 -11 -11 -11 -7 0 -9 11 -6 29 4 18 0 37 -11 52 -24 35 -52 91 -52 106 0
35 -69 5 -131 -57 -20 -20 -61 -49 -92 -64 -31 -15 -67 -41 -79 -57 -13 -17
-40 -48 -60 -70 -21 -21 -38 -44 -38 -50 0 -5 -4 -8 -9 -5 -5 3 -16 -5 -24
-18 -9 -13 -22 -30 -30 -37 -8 -8 -25 -32 -40 -54 -14 -22 -46 -62 -71 -90
-25 -27 -46 -54 -46 -58 0 -4 -9 -20 -20 -35 -44 -61 -95 -294 -71 -326 4 -6
13 -47 20 -91 13 -86 3 -193 -24 -247 -7 -15 -16 -47 -20 -70 -4 -24 -11 -48
-17 -55 -5 -6 -16 -40 -25 -75 -8 -34 -22 -75 -29 -90 -8 -15 -14 -38 -14 -52
0 -14 -5 -28 -10 -31 -6 -3 -10 -17 -10 -30 0 -12 -6 -25 -14 -28 -8 -3 -22
-23 -32 -44 -9 -21 -25 -56 -35 -79 -11 -22 -19 -45 -19 -51 0 -7 -8 -19 -18
-29 -15 -16 -20 -31 -24 -74 0 -8 -4 -19 -7 -25 -9 -13 -8 -22 8 -68 7 -20 16
-35 20 -32 5 2 13 -14 20 -35 l12 -40 123 0 123 0 26 58 c14 31 29 69 32 85 4
15 11 30 16 33 5 3 9 17 9 32 0 14 11 62 24 106 34 112 85 307 103 391 8 39
19 74 23 79 11 11 36 -45 86 -192 49 -145 57 -163 147 -346 68 -138 78 -164
75 -202 l-3 -44 252 0 251 0 21 62 c11 35 45 151 76 258 74 258 106 360 122
390 l13 25 0 -26 c0 -14 -9 -52 -20 -84 -11 -32 -20 -65 -19 -74 1 -9 6 0 13
19 6 19 14 40 19 47 8 13 57 140 57 149 0 3 -4 3 -8 0 -10 -6 -8 115 3 162 5
20 11 29 15 22 4 -6 10 8 13 32 7 45 53 195 82 263 48 114 118 247 133 252 19
7 37 26 95 97 21 25 44 46 51 46 7 0 19 11 26 25 8 14 25 28 39 32 28 7 121
91 121 110 0 6 25 21 55 32 80 30 184 28 250 -4 28 -14 56 -25 63 -25 8 0 26
-6 40 -14 43 -22 96 -36 135 -36 26 0 40 -6 51 -22 9 -12 16 -17 16 -11 0 20
-30 43 -56 43 -13 0 -23 5 -22 12 2 6 -9 18 -24 25 -16 8 -28 18 -28 23 0 10
116 -41 171 -75 48 -31 219 -203 219 -221 0 -8 4 -14 9 -14 6 0 21 -11 36 -24
14 -13 44 -27 67 -30 23 -4 45 -11 49 -17 3 -6 17 -3 36 7 29 17 32 17 47 1
10 -9 13 -17 7 -17 -23 0 -10 -18 17 -23 15 -3 41 -17 57 -31 17 -14 35 -27
40 -27 74 -10 106 0 102 33 -2 23 0 23 86 21 l89 -2 -39 26 c-33 23 -49 26
-121 26 -65 1 -81 4 -77 15 2 7 1 11 -3 8 -4 -2 -15 1 -25 8 -12 9 -19 33 -23
77 -4 35 -13 74 -20 87 -13 20 -13 22 3 22 17 1 17 1 -1 11 -13 8 -15 14 -7
18 21 13 25 77 7 112 -18 35 -21 53 -6 29 8 -12 10 -11 10 8 0 12 -5 22 -11
22 -6 0 -8 9 -4 20 5 14 2 20 -9 20 -15 0 -22 41 -17 86 1 7 -9 15 -21 19 -19
6 -20 8 -6 12 14 3 15 9 7 31 -6 15 -7 28 -2 29 39 14 58 32 64 61 6 29 4 35
-18 43 -13 5 -44 9 -67 9 -40 0 -46 4 -72 43 -16 23 -43 58 -61 77 -17 19 -32
39 -33 44 -2 15 79 36 138 36 28 0 52 5 52 10 0 6 -16 10 -35 10 -20 0 -48 6
-63 14 -23 12 -146 36 -183 36 -8 0 -6 -7 4 -23 11 -18 12 -28 4 -43 -6 -10
-11 -37 -11 -59 -1 -33 -5 -40 -25 -45 -14 -3 -31 -19 -40 -35 -10 -20 -37
-41 -82 -63 -76 -38 -84 -37 -155 28 -39 35 -129 139 -122 141 1 0 44 21 93
47 l90 47 -1 40 c-2 51 -17 141 -39 230 -9 39 -17 78 -16 87 0 34 39 104 83
149 64 65 163 218 150 231 -6 6 -8 16 -6 23 6 14 -29 90 -46 100 -5 3 -10 17
-10 29 0 13 -6 29 -14 35 -7 6 -16 30 -19 53 -3 23 -13 45 -21 50 -22 12 -20
27 7 48 l22 18 -22 31 c-13 16 -23 35 -23 40 0 6 -18 40 -40 76 -23 38 -40 78
-40 95 0 17 -5 30 -11 30 -7 0 -9 8 -4 23 12 41 14 137 1 137 -6 0 -22 12 -35
25 -13 14 -27 25 -33 25 -17 0 -40 -30 -34 -45 3 -8 1 -17 -5 -21 -5 -3 -7
-15 -3 -27 5 -18 4 -20 -7 -9 -9 8 -15 43 -18 92 -1 44 -7 80 -12 80 -5 0 -9
7 -9 15 0 8 -4 15 -9 15 -5 0 -14 -7 -21 -15 -20 -24 -35 -18 -53 20 -9 19
-22 35 -30 35 -7 0 -29 11 -49 25 -20 14 -48 25 -60 25 -13 0 -29 5 -36 12 -7
7 -12 9 -12 5 0 -4 -10 -2 -22 4 -21 11 -22 11 -9 -4 8 -10 11 -27 7 -41 -4
-17 -1 -26 10 -30 13 -5 14 -9 4 -21 -16 -19 -51 -19 -109 2 -58 20 -113 12
-130 -20 -16 -28 -82 -59 -118 -55 -28 4 -28 4 7 14 l35 11 -43 7 c-46 9 -57
4 -57 -22 0 -12 -12 -19 -40 -23 -22 -3 -64 -18 -93 -33 -40 -20 -61 -25 -86
-20 -35 6 -53 33 -34 52 6 6 4 19 -7 36 -16 23 -16 26 -1 32 13 5 12 9 -9 26
-19 15 -23 23 -15 33 10 12 1 18 -64 39 -18 6 -16 9 12 26 18 11 46 20 62 20
17 0 30 5 30 10 0 6 -7 10 -15 10 -8 0 -15 7 -15 16 0 12 -6 15 -22 9 -28 -8
-41 -8 -93 0 -22 3 -47 1 -55 -4z m906 -181 c8 0 14 -4 14 -9 0 -5 3 -16 6
-25 8 -21 -5 -20 -34 2 -16 13 -21 23 -16 37 5 11 9 14 12 7 2 -7 10 -12 18
-12z m-229 4 c-3 -3 -12 -4 -19 -1 -8 3 -5 6 6 6 11 1 17 -2 13 -5z m413 -90
c0 -8 -4 -12 -10 -9 -5 3 -10 10 -10 16 0 5 5 9 10 9 6 0 10 -7 10 -16z m190
-1325 c13 -46 8 -58 -15 -39 -20 17 -19 80 1 80 2 0 8 -18 14 -41z m-1 -98 c7
-5 15 -28 18 -53 l5 -44 -68 -22 c-38 -12 -82 -22 -98 -22 l-28 0 39 33 c22
17 55 51 74 75 37 45 37 46 58 33z m651 -885 c0 -3 -4 -8 -10 -11 -5 -3 -10
-1 -10 4 0 6 5 11 10 11 6 0 10 -2 10 -4z m-1420 -93 c-1 -14 -30 -47 -36 -41
-3 3 3 16 13 27 19 23 23 25 23 14z m-40 -57 c0 -3 -4 -8 -10 -11 -5 -3 -10
-1 -10 4 0 6 5 11 10 11 6 0 10 -2 10 -4z m-353 -798 c-3 -8 -6 -5 -6 6 -1 11
2 17 5 13 3 -3 4 -12 1 -19z m2 -60 c0 -28 -2 -30 -9 -13 -12 28 -12 45 0 45
6 0 10 -15 9 -32z"/>
<path d="M2291 4322 c-20 -3 -22 -8 -17 -35 8 -40 9 -41 45 -23 16 9 36 16 44
16 8 0 20 6 26 14 18 21 -10 39 -42 27 -14 -6 -27 -7 -29 -3 -2 4 -14 6 -27 4z"/>
<path d="M1660 4311 c0 -6 -8 -11 -19 -11 -12 0 -20 -9 -23 -25 -6 -30 -2 -35
29 -35 14 0 21 -4 18 -10 -3 -5 -15 -10 -26 -10 -15 0 -19 -8 -21 -32 -2 -50
-3 -56 -9 -63 -4 -3 -4 -21 -2 -40 3 -27 0 -35 -13 -35 -14 0 -14 -2 -3 -16
11 -14 11 -18 -5 -29 -16 -12 -16 -14 5 -20 22 -7 22 -8 4 -21 -11 -8 -26 -12
-35 -8 -8 3 -34 8 -57 9 -32 3 -43 0 -43 -11 0 -8 -11 -19 -24 -25 -30 -14
-42 -59 -15 -59 9 0 19 5 21 11 2 7 32 9 96 4 57 -5 89 -11 85 -18 -3 -5 -28
-7 -57 -4 -36 3 -57 1 -71 -9 -18 -14 -18 -14 1 -14 11 0 25 -5 32 -12 8 -8
15 -8 25 1 10 7 23 8 38 3 13 -5 48 -8 77 -7 29 2 50 -1 46 -6 -3 -5 3 -9 14
-9 10 0 24 11 30 25 15 33 15 35 -5 36 -12 0 -8 4 10 11 32 12 36 31 5 26 -11
-2 -23 3 -25 10 -3 7 5 12 21 12 13 0 28 5 31 10 3 6 16 10 28 11 21 0 21 1 2
9 -11 5 -32 9 -47 9 -20 1 -26 5 -22 15 3 8 12 12 19 9 8 -2 20 -1 27 3 9 6 4
11 -17 15 -27 6 -26 7 13 8 40 1 56 14 30 24 -10 4 -10 8 1 15 7 6 10 15 6 22
-4 7 -2 16 6 21 11 6 10 9 -4 15 -17 6 -17 8 -1 25 16 18 16 19 -1 19 -11 0
-15 5 -11 15 3 8 2 15 -3 15 -10 0 -1 59 10 66 17 10 9 33 -13 40 -13 4 -45 8
-73 9 -27 0 -58 5 -67 9 -11 5 -18 4 -18 -3z m-76 -377 c28 -11 17 -24 -19
-24 -33 0 -43 8 -28 23 8 9 27 9 47 1z m89 -11 c-7 -2 -21 -2 -30 0 -10 3 -4
5 12 5 17 0 24 -2 18 -5z m49 -50 c-6 -2 -10 -9 -6 -14 3 -5 -4 -9 -15 -9 -12
0 -21 7 -21 15 0 10 9 15 28 14 15 0 21 -3 14 -6z"/>
<path d="M1454 4302 c-15 -9 -21 -43 -11 -59 17 -26 107 -11 107 17 0 39 -61
65 -96 42z"/>
<path d="M1180 4240 c-20 -6 -21 -8 -5 -8 11 0 31 4 45 8 20 6 21 8 5 8 -11 0
-31 -4 -45 -8z"/>
<path d="M1447 4204 c-16 -16 -5 -24 34 -24 28 0 39 4 37 13 -5 13 -60 22 -71
11z"/>
<path d="M1080 4190 c0 -13 11 -13 30 0 12 8 11 10 -7 10 -13 0 -23 -4 -23
-10z"/>
<path d="M2940 4163 c0 -17 4 -20 22 -15 16 4 18 7 8 10 -8 3 -18 10 -22 16
-5 6 -8 2 -8 -11z"/>
<path d="M1470 4162 c-14 -2 -30 -8 -36 -13 -15 -12 -192 -12 -234 1 -64 19
-151 6 -135 -21 11 -17 -6 -49 -26 -49 -24 0 -25 -25 -1 -35 9 -3 63 -9 119
-12 56 -3 100 -10 97 -14 -3 -5 -16 -9 -29 -9 -13 0 -26 -3 -28 -7 -3 -5 15
-8 39 -8 27 0 44 4 44 11 0 6 14 14 31 18 71 14 179 2 179 -20 0 -9 12 -14 36
-14 31 0 35 2 25 14 -9 10 -10 36 -6 84 l7 69 -28 4 c-16 2 -40 3 -54 1z
m-325 -31 c3 -5 1 -12 -4 -15 -13 -8 -42 4 -35 15 7 12 31 12 39 0z"/>
<path d="M4105 4120 c-3 -5 1 -10 10 -10 11 0 15 -5 12 -14 -7 -17 77 -31 101
-16 13 7 5 9 -30 10 -27 0 -48 5 -48 10 0 6 8 10 18 11 11 1 9 4 -8 9 -36 11
-48 11 -55 0z"/>
<path d="M5670 4120 c8 -5 22 -10 30 -10 13 0 13 1 0 10 -8 5 -22 10 -30 10
-13 0 -13 -1 0 -10z"/>
<path d="M4720 4093 c0 -7 6 -13 13 -13 8 0 22 -9 32 -20 10 -11 22 -20 28
-20 5 0 21 -8 35 -18 15 -10 38 -19 52 -20 20 -1 22 1 10 9 -12 8 -12 12 -2
16 10 4 10 8 1 19 -6 8 -15 14 -20 14 -4 0 -20 5 -36 12 -15 6 -47 17 -70 23
-35 10 -43 9 -43 -2z"/>
<path d="M5809 4071 c7 -11 20 -21 31 -21 10 0 22 -4 25 -10 3 -5 17 -10 30
-10 13 0 31 -7 40 -16 13 -13 18 -14 31 -3 8 7 14 21 12 33 -3 22 -29 30 -127
42 -52 6 -53 6 -42 -15z"/>
<path d="M6827 4070 c18 -12 43 -23 55 -25 57 -10 93 -23 91 -33 -4 -18 28
-14 44 6 10 12 16 14 19 5 3 -7 11 -13 17 -13 7 0 21 -8 32 -16 18 -14 14 -15
-50 -9 -38 4 -71 12 -73 16 -2 5 -11 9 -19 9 -11 0 -13 -4 -6 -12 6 -7 13 -22
17 -32 6 -18 2 -19 -61 -13 -70 7 -113 1 -113 -14 0 -5 15 -9 33 -10 l32 -1
-35 -9 c-19 -5 -51 -8 -70 -6 -39 2 -58 -16 -22 -21 12 -2 22 -9 22 -17 0 -7
6 -16 13 -19 6 -4 -3 -4 -21 -1 -19 3 -43 0 -54 -6 -16 -8 -31 -8 -59 1 -23 8
-48 10 -66 5 -28 -9 -28 -9 -3 -12 14 -2 49 -8 78 -14 45 -9 52 -13 47 -30 -5
-16 -1 -19 25 -19 25 0 31 -3 26 -16 -3 -9 -6 -19 -6 -23 0 -4 -32 -8 -72 -9
-74 -2 -111 -17 -67 -26 29 -6 115 -16 147 -16 25 0 28 -10 10 -28 -12 -12 -6
-14 37 -14 56 0 67 3 61 17 -3 8 -1 15 4 15 6 0 10 8 10 17 0 9 3 13 7 9 4 -4
7 -19 8 -34 0 -17 6 -28 18 -30 10 -2 16 2 15 10 -2 8 9 14 32 17 29 3 32 5
15 11 -18 8 -17 9 8 9 15 1 26 -4 25 -10 -2 -7 18 -13 52 -15 42 -2 58 -8 69
-23 8 -13 24 -21 42 -21 16 0 29 -4 29 -10 0 -6 -35 -10 -85 -10 -73 0 -84 2
-78 16 4 12 1 15 -13 12 -10 -2 -18 -10 -16 -16 1 -7 -10 -12 -26 -12 -54 0
-43 -15 25 -33 37 -10 82 -20 98 -21 72 -6 71 -6 55 -16 -12 -8 -11 -10 8 -10
24 0 25 -4 13 -35 -8 -19 -8 -19 -22 2 l-13 22 -13 -29 c-10 -25 -17 -29 -42
-26 -17 2 -31 -1 -31 -5 0 -5 -20 -9 -45 -9 -35 0 -43 -3 -39 -15 4 -10 19
-15 43 -15 21 0 64 -5 97 -10 32 -6 71 -12 86 -15 l28 -4 0 259 -1 259 -22 4
-22 4 23 2 c30 1 28 19 -3 27 -14 3 -25 12 -25 20 0 17 22 18 38 2 9 -9 12 -4
12 24 0 32 -3 36 -31 42 -17 3 -47 6 -65 6 -18 0 -67 11 -108 25 -42 14 -103
28 -138 31 l-63 6 32 -22z m241 -117 c17 -4 20 -8 11 -14 -10 -6 -7 -11 11
-18 22 -8 18 -10 -26 -10 -60 -1 -68 4 -46 30 18 21 18 21 50 12z m59 -35 c-3
-8 -6 -5 -6 6 -1 11 2 17 5 13 3 -3 4 -12 1 -19z m-217 -4 c0 -2 -15 -4 -32
-3 -27 0 -29 2 -13 8 18 8 45 4 45 -5z m-106 -33 c4 -5 -3 -7 -14 -4 -23 6
-26 13 -6 13 8 0 17 -4 20 -9z m53 3 c-3 -3 -12 -4 -19 -1 -8 3 -5 6 6 6 11 1
17 -2 13 -5z m-69 -151 c-10 -2 -28 -2 -40 0 -13 2 -5 4 17 4 22 1 32 -1 23
-4z m32 -47 c0 -3 -4 -8 -10 -11 -5 -3 -10 -1 -10 4 0 6 5 11 10 11 6 0 10 -2
10 -4z m337 -242 c-3 -3 -12 -4 -19 -1 -8 3 -5 6 6 6 11 1 17 -2 13 -5z"/>
<path d="M518 4073 c6 -2 18 -2 25 0 6 3 1 5 -13 5 -14 0 -19 -2 -12 -5z"/>
<path d="M568 4063 c7 -3 16 -2 19 1 4 3 -2 6 -13 5 -11 0 -14 -3 -6 -6z"/>
<path d="M818 4063 c6 -2 18 -2 25 0 6 3 1 5 -13 5 -14 0 -19 -2 -12 -5z"/>
<path d="M4165 4050 c-4 -6 11 -10 37 -9 36 1 39 2 18 9 -36 11 -48 11 -55 0z"/>
<path d="M1955 4030 c17 -4 39 -8 50 -8 16 0 15 2 -5 8 -14 4 -36 8 -50 8 -22
0 -22 -1 5 -8z"/>
<path d="M6019 4038 c-12 -41 -9 -44 61 -56 38 -6 84 -21 102 -32 39 -24 98
-27 98 -6 0 8 -6 18 -12 23 -18 11 -137 45 -168 47 -14 2 -35 8 -47 14 -21 12
-32 15 -34 10z"/>
<path d="M810 4004 c-24 -13 -24 -14 -3 -14 16 0 21 -4 17 -15 -4 -8 -1 -15 5
-15 6 0 11 -4 11 -9 0 -5 -8 -7 -18 -4 -11 2 -36 -3 -57 -11 -21 -9 -48 -13
-63 -9 -17 4 -23 2 -18 -6 4 -6 16 -11 27 -11 12 0 19 -7 19 -20 0 -15 -7 -20
-24 -20 -14 0 -27 -4 -31 -9 -3 -5 -20 -13 -38 -17 l-32 -7 25 -9 c31 -12 161
-3 170 12 11 17 59 40 89 41 23 2 24 2 4 6 -13 2 -23 9 -23 14 0 5 10 9 23 9
14 0 18 3 10 8 -9 6 -7 13 9 26 17 15 18 20 7 28 -9 6 -10 11 -3 14 6 3 20 11
30 19 17 13 12 14 -46 14 -36 -1 -76 -7 -90 -15z"/>
<path d="M5478 4008 c17 -8 26 -8 34 0 9 9 4 12 -22 11 -33 0 -34 -1 -12 -11z"/>
<path d="M5788 4014 c-16 -15 6 -24 58 -24 30 0 54 4 54 10 0 5 -10 9 -22 9
-13 -1 -37 2 -53 6 -17 3 -33 3 -37 -1z"/>
<path d="M5608 4003 c7 -3 16 -2 19 1 4 3 -2 6 -13 5 -11 0 -14 -3 -6 -6z"/>
<path d="M1220 3979 c-36 -4 -69 -5 -73 -2 -5 3 -20 2 -35 -2 l-27 -8 25 -7
c15 -4 24 -13 24 -23 -1 -11 6 -17 18 -17 10 0 16 5 13 10 -4 6 7 10 27 9 31
0 32 -1 11 -11 -27 -13 -30 -33 -7 -42 22 -8 26 -8 19 4 -4 6 6 10 24 10 37 0
48 15 18 25 -16 6 -4 10 51 18 80 11 97 27 28 27 -24 0 -46 3 -48 8 -1 4 -32
4 -68 1z"/>
<path d="M5567 3983 c-57 -9 -13 -23 71 -23 49 0 82 4 77 9 -12 10 -109 19
-148 14z"/>
<path d="M493 3973 c9 -2 25 -2 35 0 9 3 1 5 -18 5 -19 0 -27 -2 -17 -5z"/>
<path d="M4108 3973 c6 -2 18 -2 25 0 6 3 1 5 -13 5 -14 0 -19 -2 -12 -5z"/>
<path d="M6813 3973 c9 -2 25 -2 35 0 9 3 1 5 -18 5 -19 0 -27 -2 -17 -5z"/>
<path d="M6900 3969 c0 -5 5 -7 10 -4 6 3 10 8 10 11 0 2 -4 4 -10 4 -5 0 -10
-5 -10 -11z"/>
<path d="M4745 3955 c26 -9 105 -12 105 -4 0 5 -26 9 -57 8 -32 0 -53 -2 -48
-4z"/>
<path d="M1850 3941 c0 -5 53 -12 118 -16 64 -4 125 -8 134 -8 37 -4 16 18
-24 25 -64 10 -228 9 -228 -1z"/>
<path d="M5360 3941 c0 -10 118 -23 132 -15 6 4 5 10 -3 15 -18 11 -129 12
-129 0z"/>
<path d="M5623 3942 c-47 -7 -21 -22 37 -22 43 0 60 4 60 13 0 13 -43 16 -97
9z"/>
<path d="M5998 3945 c-3 -4 -27 -7 -52 -7 -25 0 -46 -4 -46 -9 0 -5 6 -9 13
-10 6 -1 19 -2 27 -3 8 -2 54 -3 103 -4 71 -2 87 -5 87 -17 0 -9 7 -18 15 -21
8 -4 15 -12 15 -20 0 -13 -46 -13 -150 1 -14 2 -29 4 -35 4 -5 1 -3 5 4 10 12
8 10 11 -10 16 -25 6 -115 10 -172 7 -49 -3 -18 -22 36 -23 54 0 116 -17 70
-18 -39 -1 -25 -19 20 -27 53 -9 493 -12 469 -2 -9 4 -35 7 -57 7 -61 2 -88
11 -75 26 8 10 3 15 -22 21 -35 8 -45 10 -66 12 -7 1 -12 10 -10 19 2 14 -7
19 -42 25 -25 4 -61 10 -80 14 -19 3 -38 3 -42 -1z"/>
<path d="M5785 3929 c-4 -5 0 -10 7 -10 7 -1 24 -3 38 -4 14 -2 32 1 40 5 11
7 9 10 -10 13 -40 8 -69 6 -75 -4z"/>
<path d="M943 3913 c9 -2 23 -2 30 0 6 3 -1 5 -18 5 -16 0 -22 -2 -12 -5z"/>
<path d="M1837 3890 c-4 -17 0 -20 34 -20 29 0 37 3 33 14 -5 12 -33 25 -55
26 -4 0 -9 -9 -12 -20z"/>
<path d="M1950 3880 c0 -5 15 -10 33 -10 24 0 28 3 17 10 -20 13 -50 13 -50 0z"/>
<path d="M4130 3880 c0 -5 23 -10 51 -10 31 0 48 4 44 10 -3 6 -26 10 -51 10
-24 0 -44 -4 -44 -10z"/>
<path d="M6045 3880 c-3 -5 1 -10 10 -10 9 0 13 5 10 10 -3 6 -8 10 -10 10 -2
0 -7 -4 -10 -10z"/>
<path d="M330 3870 c-11 -7 -4 -10 27 -10 23 0 45 5 48 10 8 13 -55 13 -75 0z"/>
<path d="M453 3873 c9 -2 23 -2 30 0 6 3 -1 5 -18 5 -16 0 -22 -2 -12 -5z"/>
<path d="M1093 3874 c-59 -13 3 -52 77 -48 30 1 73 7 95 12 l40 9 -28 11 c-32
13 -150 23 -184 16z"/>
<path d="M2040 3865 c0 -16 -15 -18 -125 -15 -33 1 -71 -3 -85 -8 -22 -8 -19
-10 25 -16 68 -10 86 -16 80 -27 -4 -5 3 -9 14 -9 12 0 21 3 21 8 0 4 28 8 63
10 34 1 71 4 82 7 11 2 29 4 40 5 36 1 -10 21 -56 23 -33 1 -39 4 -36 19 3 11
0 18 -9 18 -8 0 -14 -7 -14 -15z"/>
<path d="M2105 3870 c3 -5 13 -10 21 -10 8 0 14 5 14 10 0 6 -9 10 -21 10 -11
0 -17 -4 -14 -10z"/>
<path d="M4841 3871 c-10 -7 -5 -11 17 -16 38 -8 66 4 36 16 -26 10 -37 10
-53 0z"/>
<path d="M5336 3873 c-4 -4 -28 -10 -54 -14 -45 -6 -46 -6 -9 -8 23 0 40 -7
43 -16 4 -8 14 -15 23 -15 10 0 26 -6 37 -14 18 -14 18 -15 -6 -24 -18 -7 -21
-11 -10 -15 28 -10 185 -15 205 -7 17 7 15 9 -12 9 -17 1 -35 6 -38 11 -3 6
-15 10 -26 10 -10 0 -19 5 -19 10 0 6 7 10 16 10 8 0 12 5 9 10 -3 6 -27 10
-53 11 -26 0 -41 3 -34 6 9 3 3 12 -17 24 -34 21 -44 23 -55 12z"/>
<path d="M5524 3849 c-12 -5 1 -8 36 -9 30 0 75 -5 100 -10 42 -8 73 1 57 16
-9 9 -171 11 -193 3z"/>
<path d="M1660 3810 c-13 -8 -12 -10 3 -10 9 0 17 5 17 10 0 12 -1 12 -20 0z"/>
<path d="M4728 3813 c6 -2 18 -2 25 0 6 3 1 5 -13 5 -14 0 -19 -2 -12 -5z"/>
<path d="M610 3800 c0 -5 8 -11 18 -11 9 -1 -1 -5 -23 -8 -24 -4 -39 -11 -37
-19 1 -7 -10 -12 -30 -13 -18 0 -42 -4 -53 -9 -18 -8 -17 -9 8 -9 49 -2 29
-20 -25 -23 l-53 -3 35 -11 35 -11 -60 -9 -60 -8 60 -8 c82 -11 168 -1 161 18
-4 11 14 14 102 16 64 1 84 3 49 5 -58 4 -72 23 -17 23 34 0 49 17 23 27 -19
7 -43 28 -43 37 0 3 24 6 53 7 41 1 47 3 27 9 -37 12 -170 12 -170 0z m57 -46
c-3 -3 -12 -4 -19 -1 -8 3 -5 6 6 6 11 1 17 -2 13 -5z"/>
<path d="M2025 3790 c3 -5 14 -10 23 -10 15 0 15 2 2 10 -20 13 -33 13 -25 0z"/>
<path d="M2138 3793 c7 -3 16 -2 19 1 4 3 -2 6 -13 5 -11 0 -14 -3 -6 -6z"/>
<path d="M6026 3792 c-7 -12 60 -25 149 -28 84 -3 135 5 113 17 -22 12 -255
22 -262 11z"/>
<path d="M1404 3779 c-6 -10 111 -21 139 -14 14 4 33 2 44 -3 24 -12 93 5 72
19 -15 10 -248 8 -255 -2z"/>
<path d="M1680 3779 c0 -5 7 -9 15 -9 8 0 15 -4 15 -10 0 -5 7 -10 15 -10 26
0 16 18 -15 29 -18 6 -30 6 -30 0z"/>
<path d="M1850 3770 c-8 -5 -12 -12 -8 -15 10 -10 49 5 43 16 -8 11 -16 11
-35 -1z"/>
<path d="M1178 3753 c7 -3 16 -2 19 1 4 3 -2 6 -13 5 -11 0 -14 -3 -6 -6z"/>
<path d="M4758 3753 c18 -2 45 -2 60 0 15 2 0 4 -33 4 -33 0 -45 -2 -27 -4z"/>
<path d="M1035 3732 c-58 -14 -3 -26 113 -25 104 1 133 5 121 18 -9 8 -203 14
-234 7z"/>
<path d="M2095 3730 c-3 -5 3 -10 14 -10 11 0 23 5 26 10 3 6 -3 10 -14 10
-11 0 -23 -4 -26 -10z"/>
<path d="M5895 3729 c58 -12 178 -11 170 1 -4 6 -50 10 -108 9 -81 -1 -94 -3
-62 -10z"/>
<path d="M6196 3732 c-3 -6 2 -13 11 -16 37 -10 239 -16 251 -8 18 12 -20 19
-154 28 -67 4 -104 3 -108 -4z"/>
<path d="M968 3723 c7 -3 16 -2 19 1 4 3 -2 6 -13 5 -11 0 -14 -3 -6 -6z"/>
<path d="M1435 3721 c-42 -5 -46 -7 -25 -13 40 -12 266 -10 254 2 -13 13 -161
20 -229 11z"/>
<path d="M1905 3720 c-27 -5 -72 -9 -100 -10 -47 -2 -48 -2 -20 -11 46 -15
355 -24 355 -11 0 12 -14 17 -94 31 -65 12 -68 12 -141 1z"/>
<path d="M4095 3710 c46 -12 113 -12 95 0 -8 5 -40 9 -70 9 -46 -1 -50 -3 -25
-9z"/>
<path d="M5490 3716 c0 -9 40 -13 46 -5 3 5 -6 9 -20 9 -14 0 -26 -2 -26 -4z"/>
<path d="M5615 3709 c-18 -7 -18 -8 5 -8 14 -1 32 -5 40 -11 14 -9 40 4 40 19
0 10 -61 10 -85 0z"/>
<path d="M4107 3660 c5 -17 13 -20 67 -19 l61 1 -35 12 c-24 9 -30 15 -20 19
8 3 -6 6 -32 6 -41 1 -46 -1 -41 -19z"/>
<path d="M6385 3670 c-17 -6 -16 -8 10 -14 66 -17 243 -27 251 -15 3 5 2 9 -3
8 -4 -1 -19 2 -33 8 -32 13 -199 23 -225 13z"/>
<path d="M5748 3643 c6 -2 18 -2 25 0 6 3 1 5 -13 5 -14 0 -19 -2 -12 -5z"/>
<path d="M430 3630 c-41 -5 -23 -7 70 -7 76 -1 115 2 100 7 -29 9 -93 9 -170
0z"/>
<path d="M1558 3633 c7 -3 16 -2 19 1 4 3 -2 6 -13 5 -11 0 -14 -3 -6 -6z"/>
<path d="M6925 3630 c3 -5 13 -10 21 -10 8 0 14 5 14 10 0 6 -9 10 -21 10 -11
0 -17 -4 -14 -10z"/>
<path d="M4918 3623 c6 -2 18 -2 25 0 6 3 1 5 -13 5 -14 0 -19 -2 -12 -5z"/>
<path d="M5023 3623 c9 -2 23 -2 30 0 6 3 -1 5 -18 5 -16 0 -22 -2 -12 -5z"/>
<path d="M7020 3620 c0 -5 12 -10 26 -10 14 0 23 4 19 10 -3 6 -15 10 -26 10
-10 0 -19 -4 -19 -10z"/>
<path d="M4195 3600 c27 -12 35 -12 35 0 0 6 -12 10 -27 9 -25 0 -26 -1 -8 -9z"/>
<path d="M6130 3600 c0 -5 6 -10 13 -10 6 -1 58 -5 114 -10 74 -7 112 -6 135
3 l33 11 -45 7 c-70 11 -250 10 -250 -1z"/>
<path d="M6549 3599 c-12 -8 -12 -10 1 -19 8 -5 21 -8 28 -5 8 3 44 0 80 -5
68 -11 222 -4 222 11 0 17 -306 34 -331 18z"/>
<path d="M475 3590 c-3 -5 -31 -9 -63 -8 -88 1 -103 -4 -37 -11 33 -4 85 -4
115 -1 53 6 54 7 27 18 -34 14 -34 14 -42 2z"/>
<path d="M4160 3570 c-24 -8 -24 -8 7 -9 17 -1 35 4 38 9 7 11 -9 11 -45 0z"/>
<path d="M1940 3564 c-8 -2 -46 -6 -84 -9 -57 -6 -66 -9 -51 -18 26 -14 325
-23 325 -9 0 14 -25 22 -73 22 -23 0 -56 4 -72 8 -17 5 -37 7 -45 6z"/>
<path d="M5953 3563 c9 -2 25 -2 35 0 9 3 1 5 -18 5 -19 0 -27 -2 -17 -5z"/>
<path d="M6013 3556 c3 -8 1 -17 -6 -20 -9 -3 -8 -8 3 -16 11 -9 12 -13 3 -17
-24 -9 -13 -23 20 -24 17 -1 43 -5 57 -9 l25 -8 -25 -1 c-14 -1 -31 -5 -38
-10 -17 -10 31 -21 97 -21 25 0 53 -5 61 -10 11 -7 6 -10 -20 -10 -53 -1 -13
-20 56 -27 59 -6 85 -23 35 -23 -60 0 -39 -18 30 -24 95 -10 109 -16 73 -31
l-29 -12 40 -6 c22 -3 64 -9 93 -13 56 -6 68 -20 27 -30 -37 -9 -26 -14 57
-25 76 -10 268 -2 268 11 0 4 -40 13 -90 21 -88 13 -103 27 -30 30 52 1 -91
27 -157 28 -29 1 -53 6 -53 11 0 6 23 10 52 10 77 0 48 18 -47 28 -69 8 -76
10 -47 17 56 13 35 23 -69 30 -64 5 -96 11 -88 16 8 5 31 9 52 9 20 0 37 3 37
8 0 4 -46 8 -102 9 -107 3 -167 23 -67 23 38 0 50 3 39 10 -8 5 -40 10 -70 10
-30 0 -62 5 -70 10 -12 8 -10 10 11 10 56 0 37 16 -33 26 -41 6 -59 12 -40 13
50 2 38 21 -14 21 -36 0 -45 -3 -41 -14z"/>
<path d="M380 3529 c-19 -10 -44 -19 -55 -19 -11 -1 -33 -7 -50 -14 l-30 -12
35 -8 35 -7 -25 -14 c-14 -8 -33 -14 -43 -15 -27 0 -10 -20 18 -20 37 0 40
-19 5 -26 -50 -11 -29 -29 30 -27 57 3 86 18 56 29 -16 6 -15 8 4 26 16 15 18
23 10 33 -7 8 -9 19 -5 26 4 6 1 15 -6 20 -10 6 -2 9 22 9 20 0 51 3 69 6 l32
7 -23 13 c-31 17 -37 17 -79 -7z"/>
<path d="M303 3533 c9 -2 23 -2 30 0 6 3 -1 5 -18 5 -16 0 -22 -2 -12 -5z"/>
<path d="M6775 3521 l-40 -7 35 -7 c98 -19 195 -28 231 -22 27 5 45 3 56 -7 9
-7 14 -8 10 -2 -4 7 1 15 10 18 37 14 -8 24 -132 29 -71 3 -148 2 -170 -2z"/>
<path d="M433 3483 c15 -2 37 -2 50 0 12 2 0 4 -28 4 -27 0 -38 -2 -22 -4z"/>
<path d="M6545 3454 c-11 -3 -31 -7 -45 -10 -22 -5 -23 -7 -7 -15 24 -14 338
-17 357 -4 15 10 2 12 -215 29 -38 2 -79 3 -90 0z"/>
<path d="M135 3380 l-60 -7 68 -1 c39 -1 67 2 67 8 0 6 -3 9 -7 8 -5 -1 -35
-4 -68 -8z"/>
<path d="M1755 3351 c-16 -5 -25 -9 -20 -10 128 -21 358 -20 337 1 -13 13
-278 20 -317 9z"/>
<path d="M130 3326 c-36 -6 -60 -14 -55 -17 16 -9 172 -11 255 -3 62 6 70 8
50 16 -40 15 -180 17 -250 4z"/>
<path d="M7175 3330 c-3 -5 1 -10 9 -10 9 0 16 5 16 10 0 6 -4 10 -9 10 -6 0
-13 -4 -16 -10z"/>
<path d="M2295 3281 c-46 -7 -37 -17 20 -22 31 -3 40 0 43 14 4 18 2 18 -63 8z"/>
<path d="M113 3263 c-56 -4 -69 -16 -30 -28 22 -6 22 -6 -4 -18 -22 -10 -25
-16 -18 -36 6 -13 6 -28 1 -35 -5 -6 -12 -22 -15 -35 -6 -23 -5 -24 46 -17 29
3 63 6 77 6 19 1 13 6 -24 20 -69 27 -76 37 -30 45 89 16 113 44 37 45 -61 0
-43 26 37 53 16 6 10 6 -77 0z"/>
<path d="M6058 3263 c-50 -8 -30 -20 50 -31 76 -11 198 -6 207 8 2 4 -43 10
-100 14 -58 4 -111 8 -118 10 -6 1 -24 1 -39 -1z"/>
<path d="M7005 3253 c-139 -16 -118 -31 58 -40 133 -6 137 -6 137 14 0 17 -9
21 -46 27 -47 6 -94 6 -149 -1z"/>
<path d="M160 3240 c0 -5 7 -10 15 -10 8 0 15 5 15 10 0 6 -7 10 -15 10 -8 0
-15 -4 -15 -10z"/>
<path d="M1148 3243 c-51 -13 19 -35 117 -37 34 -1 40 2 43 22 3 21 1 22 -70
21 -40 -1 -81 -3 -90 -6z"/>
<path d="M2380 3230 c0 -5 5 -10 11 -10 5 0 7 5 4 10 -3 6 -8 10 -11 10 -2 0
-4 -4 -4 -10z"/>
<path d="M2305 3215 c-43 -13 -37 -19 28 -30 32 -5 37 -3 37 13 0 27 -18 31
-65 17z"/>
<path d="M6626 3181 c-13 -5 16 -12 83 -20 56 -8 100 -15 98 -17 -2 -2 -18 -6
-36 -8 -42 -5 -52 -16 -15 -16 33 -1 170 -32 179 -42 4 -3 -17 -10 -47 -15
l-53 -9 35 -11 c19 -6 70 -17 112 -24 43 -7 75 -15 73 -17 -3 -3 -21 -8 -41
-11 -20 -3 -36 -10 -36 -16 1 -11 42 -19 150 -29 l72 -7 0 30 c0 21 -5 31 -15
31 -8 0 -15 5 -15 10 0 6 7 10 15 10 8 0 15 7 15 15 0 9 -9 15 -24 15 -13 0
-41 7 -62 16 -37 16 -38 16 -16 28 20 11 15 13 -50 24 -40 6 -100 14 -133 18
-52 6 -56 8 -32 15 16 4 42 6 58 4 37 -4 46 9 15 23 -27 12 -301 15 -330 3z"/>
<path d="M2283 3153 c-24 -2 -43 -8 -43 -12 0 -11 107 -29 121 -20 17 10 3 39
-18 37 -10 -1 -37 -3 -60 -5z"/>
<path d="M500 3116 c-30 -6 -50 -15 -44 -18 15 -10 154 -31 161 -25 9 10 -8
27 -28 27 -10 0 -18 5 -16 11 3 17 -12 18 -73 5z"/>
<path d="M608 3113 c7 -3 16 -2 19 1 4 3 -2 6 -13 5 -11 0 -14 -3 -6 -6z"/>
<path d="M1130 3101 c-25 -3 -45 -10 -45 -16 0 -19 198 -46 208 -27 3 4 1 17
-4 30 -7 19 -15 22 -61 20 -29 0 -73 -4 -98 -7z"/>
<path d="M1754 3079 c-3 -5 2 -9 11 -9 9 0 38 -7 65 -16 49 -16 178 -15 275 2
l40 7 -55 13 c-62 15 -327 17 -336 3z"/>
<path d="M2290 3071 c-23 -7 -23 -8 -5 -14 11 -3 39 -9 63 -12 38 -6 42 -5 42
14 0 18 -6 21 -37 20 -21 -1 -49 -4 -63 -8z"/>
<path d="M44 3029 l-19 -22 30 7 c17 3 48 9 70 13 l40 7 -30 7 c-53 12 -72 9
-91 -12z"/>
<path d="M6012 2997 c-10 -12 -7 -16 15 -25 49 -19 111 -24 148 -12 19 6 35
15 35 20 0 5 -26 11 -57 15 -32 3 -74 8 -94 11 -24 4 -39 0 -47 -9z"/>
<path d="M2302 2985 c3 -3 29 -9 57 -14 40 -6 51 -5 51 5 0 10 -16 14 -57 14
-31 0 -54 -2 -51 -5z"/>
<path d="M36 2962 c-4 -3 -6 -11 -6 -19 0 -9 16 -13 57 -13 31 0 54 2 51 5 -9
9 -97 33 -102 27z"/>
<path d="M1175 2961 c-22 -4 -50 -12 -62 -19 -12 -7 -44 -12 -72 -12 -28 0
-51 -4 -51 -10 0 -5 14 -10 30 -10 17 0 43 -6 58 -14 61 -31 263 -19 213 13
-8 5 -11 16 -8 25 4 10 -1 20 -13 26 -20 11 -34 11 -95 1z"/>
<path d="M2322 2912 c-13 -4 -24 -11 -25 -17 -4 -18 38 -15 63 5 23 18 23 19
5 19 -11 -1 -30 -4 -43 -7z"/>
<path d="M7152 2901 c-11 -7 -10 -10 3 -15 28 -10 45 -7 45 9 0 16 -27 20 -48
6z"/>
<path d="M6085 2830 c-4 -6 13 -10 44 -10 28 0 51 5 51 10 0 6 -20 10 -44 10
-25 0 -48 -4 -51 -10z"/>
<path d="M395 2784 c-82 -7 -185 -25 -185 -34 0 -17 29 -28 105 -40 97 -16
147 -16 245 -2 41 6 78 11 82 12 16 1 -7 42 -28 50 -29 11 -153 19 -219 14z"/>
<path d="M1118 2773 c-21 -2 -38 -8 -38 -14 0 -5 -24 -9 -52 -10 -67 -1 -167
-16 -122 -18 17 0 53 -8 80 -16 27 -8 67 -15 89 -15 22 0 51 -8 65 -17 17 -12
25 -13 28 -5 2 7 22 12 47 12 62 0 74 7 69 38 -6 32 -19 42 -59 42 -16 0 -39
2 -50 4 -11 2 -37 1 -57 -1z"/>
<path d="M5250 2755 c0 -3 10 -10 23 -15 l22 -9 -22 0 c-13 -1 -23 -5 -23 -11
0 -5 15 -10 33 -9 73 2 107 28 51 40 -38 9 -84 10 -84 4z"/>
<path d="M1760 2740 c-110 -20 -111 -21 -40 -42 36 -10 79 -16 97 -13 27 5 31
9 30 33 -3 31 -17 34 -87 22z"/>
<path d="M4050 2680 c0 -5 12 -10 28 -10 21 0 24 2 12 10 -20 13 -40 13 -40 0z"/>
<path d="M5279 2675 c-4 -3 -33 -8 -65 -11 -63 -4 -87 -14 -35 -14 19 0 34 -6
37 -15 4 -8 17 -15 30 -15 32 0 75 -21 71 -34 -2 -6 -14 -13 -28 -14 -33 -5
-41 -15 -27 -35 10 -13 38 -19 122 -26 95 -7 164 -7 172 1 1 2 4 12 6 22 3 20
-21 28 -152 53 l-45 8 103 19 c56 10 102 22 102 26 0 14 -279 48 -291 35z"/>
<path d="M7180 2670 c-8 -5 -25 -10 -36 -10 -12 0 -40 -8 -63 -18 l-40 -19 35
-16 c19 -9 55 -17 79 -17 l45 0 0 45 c0 25 -1 45 -2 45 -2 0 -10 -5 -18 -10z"/>
<path d="M4105 2659 c-4 -5 22 -9 61 -9 37 0 65 2 63 4 -10 9 -119 14 -124 5z"/>
<path d="M5825 2657 c-26 -20 -12 -34 42 -43 27 -4 50 -8 53 -9 81 -22 127
-26 191 -15 62 11 109 34 95 47 -2 3 -46 11 -98 19 -121 18 -258 18 -283 1z"/>
<path d="M4008 2623 c6 -2 18 -2 25 0 6 3 1 5 -13 5 -14 0 -19 -2 -12 -5z"/>
<path d="M6880 2626 c0 -9 30 -14 35 -6 4 6 -3 10 -14 10 -12 0 -21 -2 -21 -4z"/>
<path d="M1074 2536 c-11 -8 -45 -18 -74 -22 -30 -4 -65 -13 -79 -20 -21 -11
-23 -14 -8 -20 10 -3 31 -4 47 0 22 4 30 2 30 -9 0 -30 150 -30 288 0 26 6 30
25 4 25 -9 0 -23 9 -29 19 -9 14 -27 20 -65 24 -29 2 -62 7 -73 11 -12 4 -29
1 -41 -8z m46 -66 c0 -5 -4 -10 -10 -10 -5 0 -10 5 -10 10 0 6 5 10 10 10 6 0
10 -4 10 -10z"/>
<path d="M5450 2481 c-8 -5 -31 -12 -50 -16 -66 -12 -140 -36 -140 -43 0 -11
181 -51 267 -58 83 -8 88 -7 88 5 0 17 13 22 40 15 20 -5 23 -9 13 -15 -10 -7
-9 -9 5 -9 9 0 17 4 17 9 0 4 28 12 62 15 37 5 57 11 49 15 -7 5 11 6 41 4
l53 -4 -29 17 c-23 13 -41 15 -85 9 -74 -10 -153 -8 -160 2 -14 21 -57 43 -83
43 -15 0 -30 5 -33 10 -7 12 -35 13 -55 1z"/>
<path d="M6895 2436 c-10 -7 -19 -24 -21 -38 -2 -23 2 -27 34 -31 20 -3 64
-10 97 -16 37 -6 75 -7 100 -1 22 5 52 11 68 15 36 7 37 40 1 49 -15 4 -76 11
-136 17 -61 5 -114 11 -118 14 -4 2 -15 -2 -25 -9z"/>
<path d="M5455 2333 c-11 -3 -31 -10 -45 -16 -26 -11 -35 -14 -58 -16 -33 -3
4 -20 56 -27 31 -4 68 -11 82 -16 14 -6 68 -16 119 -24 52 -8 97 -16 99 -19 2
-2 -14 -13 -37 -25 -46 -23 -53 -40 -16 -40 25 0 37 -19 13 -21 -29 -1 92 -29
155 -35 66 -7 104 -24 52 -24 -15 0 -38 -9 -51 -19 -16 -13 -49 -21 -102 -26
-78 -7 -113 -18 -99 -31 9 -10 158 -35 168 -28 5 3 18 0 30 -6 11 -7 62 -19
112 -28 50 -10 92 -22 94 -29 4 -12 -87 -63 -112 -63 -8 0 -21 -8 -30 -17 -16
-15 -14 -18 31 -35 27 -11 89 -23 139 -27 49 -5 104 -16 120 -25 45 -24 95
-19 95 10 0 10 -15 14 -57 14 -32 0 -65 5 -73 10 -10 7 16 10 83 10 63 0 96
-4 92 -10 -4 -6 22 -10 70 -10 57 0 76 3 73 13 -3 6 -15 14 -28 15 -13 2 -29
10 -37 17 -7 8 -35 17 -61 20 -26 4 -53 14 -60 23 -8 11 -46 22 -104 32 -50 8
-93 20 -95 26 -2 7 21 16 57 23 63 13 142 49 144 66 2 15 -63 34 -120 34 -28
1 -80 10 -114 21 -34 11 -73 20 -86 20 -49 0 -31 19 23 25 72 9 183 41 163 48
-8 3 -40 8 -70 12 -30 3 -73 10 -95 15 -22 5 -74 15 -115 21 -41 7 -79 16 -84
20 -9 8 85 39 121 39 13 0 23 4 23 10 0 5 15 13 33 18 29 8 25 9 -48 21 -44 8
-108 19 -141 26 -50 10 -66 10 -85 -1 -13 -7 -18 -13 -11 -14 6 0 12 -4 12
-10 0 -16 -54 -12 -76 6 -10 8 -14 13 -7 10 6 -4 14 -2 17 3 11 18 -103 28
-159 14z m788 -490 c-7 -2 -21 -2 -30 0 -10 3 -4 5 12 5 17 0 24 -2 18 -5z"/>
<path d="M200 2291 c0 -5 -30 -12 -67 -14 -38 -3 -83 -8 -101 -12 -29 -7 -32
-11 -32 -45 0 -31 4 -39 22 -43 13 -3 43 -11 68 -17 34 -9 66 -8 145 4 55 8
142 20 192 27 86 12 91 14 75 29 -19 18 -140 50 -187 50 -16 0 -43 7 -59 15
-32 17 -56 19 -56 6z"/>
<path d="M1027 2283 c-11 -3 -16 -11 -13 -19 3 -7 1 -16 -5 -19 -5 -4 -12 1
-16 11 -5 15 -8 15 -17 2 -14 -19 -72 -31 -166 -34 -41 -2 -79 -3 -83 -4 -5 0
-5 -4 -2 -10 9 -14 -19 -12 -33 2 -8 8 -12 8 -12 1 0 -20 25 -32 90 -42 88
-15 101 -14 94 4 -4 10 -20 15 -52 15 -67 0 -42 13 33 17 40 2 65 -1 65 -7 0
-5 -7 -10 -15 -10 -25 0 -17 -19 17 -36 29 -15 43 -15 133 -4 55 7 94 15 88
17 -21 7 -15 23 8 23 21 0 69 42 69 59 0 10 -49 21 -91 21 -15 0 -31 5 -34 10
-6 10 -26 11 -58 3z"/>
<path d="M5091 2174 c-18 -20 -20 -31 -13 -52 11 -36 47 -39 143 -13 40 12 86
21 101 21 16 0 28 5 28 10 0 6 -10 10 -23 10 -12 0 -31 6 -42 14 -17 11 -127
36 -162 36 -5 0 -19 -12 -32 -26z"/>
<path d="M7140 2168 c-19 -5 -42 -16 -51 -24 -8 -8 -24 -14 -35 -15 -18 -1 -8
-5 55 -25 11 -4 10 -8 -5 -20 -18 -14 -18 -15 3 -4 12 6 34 22 49 35 15 14 31
25 35 25 5 0 9 9 9 20 0 22 -8 23 -60 8z"/>
<path d="M5532 2151 c-16 -10 16 -21 61 -21 25 0 27 2 13 15 -16 16 -53 20
-74 6z"/>
<path d="M6288 2133 c7 -3 16 -2 19 1 4 3 -2 6 -13 5 -11 0 -14 -3 -6 -6z"/>
<path d="M6867 2123 c-16 -15 -5 -21 31 -16 61 9 73 22 21 23 -25 0 -49 -3
-52 -7z"/>
<path d="M7125 2035 c-38 -19 -79 -35 -89 -35 -17 0 -16 4 9 30 40 41 22 38
-34 -7 -93 -75 -180 -179 -191 -226 -4 -21 -12 -31 -21 -29 -9 1 -23 -12 -32
-30 -9 -18 -30 -55 -46 -83 -16 -27 -47 -86 -69 -130 l-40 -81 -93 8 c-168 14
-230 12 -282 -9 -53 -21 -64 -36 -29 -41 13 -2 25 3 28 12 8 21 27 20 99 -3
33 -11 79 -25 103 -32 52 -15 38 -29 -30 -29 -27 0 -48 -4 -48 -10 0 -5 14
-10 31 -10 18 0 61 -5 96 -12 54 -10 66 -9 74 3 5 8 9 9 9 4 0 -6 -4 -15 -8
-20 -5 -6 -14 -29 -20 -52 -10 -34 -18 -43 -42 -48 -16 -4 -52 -17 -80 -31
-27 -13 -56 -24 -62 -25 -27 -2 69 -38 101 -39 27 0 32 -3 26 -17 -3 -10 -20
-61 -37 -113 -31 -98 -91 -271 -103 -303 -4 -10 -14 -16 -21 -13 -7 3 -16 1
-19 -4 -4 -6 1 -10 9 -10 9 0 16 -3 16 -7 0 -9 -82 -270 -110 -348 -10 -27
-21 -59 -24 -69 -5 -15 -9 -17 -18 -8 -15 15 -62 16 -53 2 3 -5 17 -10 31 -10
17 0 24 -5 24 -20 0 -16 -7 -20 -31 -20 -19 0 -28 -4 -23 -11 3 -6 15 -9 25
-6 23 6 23 0 4 -47 -17 -41 -15 -40 -85 -25 -52 11 -76 6 -50 -11 8 -6 26 -10
38 -10 36 0 21 -22 -24 -35 l-39 -12 67 -7 c36 -5 72 -6 78 -4 12 4 27 43 76
193 15 44 44 126 65 183 22 57 39 108 39 113 0 9 113 338 142 412 17 45 20 24
4 -29 -8 -27 -17 -62 -20 -79 -6 -28 -6 -29 8 -10 8 11 23 29 34 40 37 41 84
181 75 226 -15 75 128 473 180 501 18 9 19 7 12 -34 -5 -32 -4 -40 4 -32 7 6
13 24 15 40 2 15 8 30 15 32 6 2 11 13 11 25 0 12 9 36 20 54 22 36 145 161
208 211 48 37 132 82 156 82 24 0 22 67 -1 73 -17 4 -17 5 0 6 12 1 17 10 17
31 0 17 -1 30 -2 30 -2 0 -34 -16 -73 -35z m28 -42 c-7 -2 -19 -2 -25 0 -7 3
-2 5 12 5 14 0 19 -2 13 -5z m-598 -564 c12 -19 -5 -23 -22 -6 -16 16 -16 17
-1 17 9 0 20 -5 23 -11z m40 -28 c-3 -12 -11 -21 -16 -21 -6 0 -8 3 -6 8 2 4
7 16 11 26 9 25 20 13 11 -13z"/>
<path d="M7155 1875 c-21 -18 -31 -21 -37 -12 -7 11 -9 8 -12 -18 -3 -19 -67
-105 -86 -115 -16 -9 -20 -8 -20 5 0 21 -22 19 -54 -6 -47 -37 -24 -72 48 -72
34 0 53 7 84 31 22 18 45 32 51 32 5 0 24 13 41 30 27 26 30 36 30 90 0 33 -3
60 -7 60 -5 -1 -21 -12 -38 -25z"/>
<path d="M4457 1743 c-14 -13 -7 -23 16 -23 35 0 67 11 61 21 -6 10 -67 12
-77 2z"/>
<path d="M6208 1683 c7 -3 16 -2 19 1 4 3 -2 6 -13 5 -11 0 -14 -3 -6 -6z"/>
<path d="M5970 1663 c-27 -5 -49 -29 -50 -54 0 -12 16 -19 63 -28 34 -6 84
-17 111 -23 27 -6 92 -12 145 -14 53 -2 99 -3 104 -4 4 0 7 -6 7 -13 0 -21 57
-38 85 -25 14 6 22 15 19 19 -3 5 6 9 20 9 14 0 27 4 30 9 5 8 -35 15 -156 28
-60 6 -60 6 -62 63 -1 22 -7 26 -46 32 -50 7 -231 8 -270 1z m297 -89 c-3 -3
-12 -4 -19 -1 -8 3 -5 6 6 6 11 1 17 -2 13 -5z"/>
<path d="M4452 1590 c0 -19 2 -27 5 -17 2 9 2 25 0 35 -3 9 -5 1 -5 -18z"/>
<path d="M0 1475 c0 -61 7 -66 56 -40 16 8 41 15 57 15 15 0 27 5 27 10 0 6
10 15 23 20 17 7 18 9 4 9 -10 1 -37 10 -59 21 -23 11 -57 20 -75 20 l-33 0 0
-55z"/>
<path d="M708 1524 c-10 -3 -15 -11 -11 -20 7 -18 -12 -18 -40 1 -19 12 -45
13 -147 7 -107 -6 -125 -9 -128 -24 -3 -14 4 -18 30 -18 19 0 43 -7 54 -15 10
-8 37 -15 59 -16 33 -1 28 -3 -27 -12 -44 -6 -68 -14 -68 -22 0 -8 -15 -17
-32 -21 l-33 -7 25 -10 c28 -11 450 -13 499 -2 31 7 31 7 31 74 l0 68 -52 6
c-29 3 -73 8 -98 11 -25 2 -53 2 -62 0z m-98 -24 c0 -5 -4 -10 -9 -10 -6 0
-13 5 -16 10 -3 6 1 10 9 10 9 0 16 -4 16 -10z m137 -6 c-3 -3 -12 -4 -19 -1
-8 3 -5 6 6 6 11 1 17 -2 13 -5z"/>
<path d="M3305 1487 c-11 -6 -22 -15 -25 -18 -3 -3 -20 -9 -39 -12 -24 -5 -56
-30 -117 -92 -46 -47 -84 -79 -84 -70 0 8 -6 15 -14 15 -8 0 -16 4 -18 9 -1 5
-12 3 -23 -6 -20 -15 -20 -15 4 -31 64 -43 67 -49 70 -117 1 -15 8 -20 30 -20
16 0 32 3 36 6 3 4 10 35 15 69 10 70 21 85 104 144 139 98 152 95 48 -10 -41
-43 -81 -96 -104 -140 -21 -40 -48 -87 -60 -106 -24 -35 -29 -49 -69 -193 -12
-44 -29 -96 -39 -115 -9 -19 -22 -62 -30 -95 -16 -77 -42 -169 -90 -325 -21
-69 -52 -172 -70 -230 -17 -58 -35 -113 -41 -122 -5 -10 -9 -20 -9 -23 0 -3
157 -5 349 -5 l349 0 21 58 c36 98 71 258 81 365 5 56 14 138 20 182 7 43 9
92 6 108 -3 16 -1 47 6 68 9 31 8 48 -2 79 -11 35 -11 51 3 118 23 106 22 119
-8 126 -14 4 -31 4 -37 0 -34 -21 -98 2 -98 36 0 5 -27 12 -60 16 -71 8 -83
32 -25 53 32 11 35 16 35 53 0 30 -4 41 -18 45 -19 5 -59 80 -48 90 3 4 6 -1
6 -10 0 -9 5 -17 10 -17 13 0 13 13 -1 27 -9 9 -4 20 20 44 20 20 29 35 23 41
-15 15 -85 19 -107 5z"/>
<path d="M5355 1480 c3 -5 32 -12 65 -16 91 -10 74 -27 -18 -19 -66 6 -86 4
-123 -12 -24 -11 -56 -23 -71 -26 -65 -17 -14 -43 122 -63 25 -4 52 -12 60
-19 16 -13 265 -60 313 -58 33 0 132 21 165 34 12 5 27 20 32 34 6 16 17 25
31 25 18 0 19 2 9 15 -10 12 -10 15 3 15 8 0 25 8 37 18 22 18 22 18 -41 30
-35 6 -107 16 -159 22 -51 6 -123 15 -160 20 -86 13 -273 13 -265 0z m208 -47
c-13 -2 -33 -2 -45 0 -13 2 -3 4 22 4 25 0 35 -2 23 -4z"/>
<path d="M7185 1480 c3 -5 8 -10 11 -10 2 0 4 5 4 10 0 6 -5 10 -11 10 -5 0
-7 -4 -4 -10z"/>
<path d="M7157 1420 c-14 -11 -39 -20 -56 -20 -22 0 -29 -4 -25 -14 3 -9 -5
-15 -27 -20 -27 -5 -30 -8 -19 -21 7 -8 24 -15 39 -15 14 0 50 -7 79 -14 l52
-14 0 69 c0 38 -4 69 -9 69 -4 0 -20 -9 -34 -20z"/>
<path d="M4503 1307 c-13 -7 -23 -15 -23 -19 0 -5 -8 -8 -19 -8 -43 0 -48 -31
-20 -129 11 -41 11 -45 -10 -62 -12 -10 -19 -24 -15 -30 3 -6 1 -15 -6 -19
-17 -11 -16 -48 5 -109 28 -87 11 -80 -36 13 -41 84 -46 89 -77 91 -27 2 -36
-2 -44 -21 -6 -13 -14 -24 -18 -24 -12 0 -19 -53 -10 -70 4 -8 10 -42 12 -75
5 -58 23 -108 72 -205 24 -46 25 -51 43 -353 l6 -107 -26 0 c-31 0 -36 -13
-36 -107 l0 -73 145 0 c122 0 146 2 151 16 3 8 6 49 7 90 1 62 -2 77 -16 85
-22 12 -23 32 -4 48 11 9 16 3 25 -33 6 -25 11 -58 11 -75 0 -17 4 -40 9 -53
5 -13 12 -35 15 -50 l6 -28 374 0 c305 0 376 3 385 14 9 11 7 15 -9 19 -11 3
-20 13 -20 22 0 16 7 17 61 11 46 -4 60 -3 56 7 -2 7 -24 12 -58 13 -70 1 -89
12 -118 71 -12 26 -27 56 -33 66 -5 11 -7 21 -5 24 3 2 61 -3 128 -12 184 -25
219 -27 219 -10 0 23 -14 26 -144 29 -92 2 -132 7 -149 19 -13 8 -41 20 -63
26 -38 10 -83 60 -150 166 -10 17 -51 71 -90 120 -39 50 -76 101 -83 114 l-13
23 104 -5 c56 -3 92 -3 78 0 -23 5 -22 6 15 19 22 7 48 14 58 14 9 0 17 5 17
12 0 6 -3 8 -7 5 -3 -4 -11 0 -17 8 -7 10 -64 24 -156 40 -176 31 -180 32
-180 52 0 9 6 13 13 10 8 -3 40 -8 73 -11 l59 -6 -65 16 c-36 8 -75 17 -87 20
-14 3 -31 20 -44 47 -12 23 -27 49 -34 57 -25 29 -115 207 -108 213 3 4 21 7
39 7 27 0 31 3 27 20 -4 14 1 21 21 26 27 6 36 23 14 25 -14 0 -139 15 -198
23 -19 2 -45 -1 -57 -7z m18 -718 c5 -24 12 -52 15 -63 4 -12 2 -17 -6 -14
-14 4 -38 67 -45 117 -4 32 -3 33 11 19 9 -8 20 -35 25 -59z m36 -191 c-3 -8
-6 -5 -6 6 -1 11 2 17 5 13 3 -3 4 -12 1 -19z"/>
<path d="M6930 1186 c0 -7 -6 -19 -14 -25 -17 -14 -49 -128 -42 -147 6 -16 52
-19 61 -4 3 6 -2 13 -12 18 -12 4 4 9 47 14 113 12 144 20 168 41 33 30 29 60
-10 75 -18 7 -46 19 -61 27 -38 20 -137 20 -137 1z"/>
<path d="M376 1003 c-17 -3 -30 -12 -33 -24 -3 -10 -10 -19 -17 -19 -127 -6
-210 -19 -222 -35 -17 -23 -12 -31 27 -39 21 -4 29 -10 26 -19 -8 -22 27 -45
80 -53 37 -5 44 -9 28 -15 -11 -4 -17 -8 -12 -8 4 -1 0 -12 -8 -25 -14 -21
-14 -24 0 -30 9 -3 30 -6 46 -6 27 0 43 -20 17 -20 -7 0 -5 -5 6 -11 28 -17
330 -14 386 3 l45 14 11 69 c6 39 15 88 19 111 l7 41 -61 13 c-75 16 -75 33 0
40 l54 5 -55 7 c-57 8 -293 8 -344 1z"/>
<path d="M6864 983 c-12 -8 -38 -62 -49 -100 -9 -32 5 -37 200 -78 44 -10 85
-22 90 -28 7 -7 6 -8 -1 -4 -6 3 -46 7 -90 7 -43 1 -112 8 -152 17 -71 15
-102 12 -72 -8 8 -5 32 -12 53 -15 20 -4 37 -10 37 -14 0 -4 47 -15 105 -25
58 -10 105 -21 105 -25 0 -16 -59 -18 -103 -5 -26 8 -75 17 -109 20 -35 4 -73
12 -86 18 -26 13 -42 -2 -42 -39 0 -18 9 -23 58 -31 31 -6 73 -16 92 -23 19
-7 42 -15 50 -18 8 -3 -3 -8 -25 -11 -22 -3 -35 -9 -30 -13 6 -4 69 -18 140
-33 72 -14 138 -27 148 -29 11 -3 17 2 17 13 0 12 -16 25 -45 37 -48 19 -56
30 -27 37 16 4 16 5 0 6 -40 2 -9 31 33 31 14 0 18 4 13 12 -5 7 -9 21 -9 30
-1 13 3 17 17 12 17 -5 18 2 18 95 0 113 12 99 -99 121 -30 6 -59 17 -65 24
-12 16 -154 32 -172 19z"/>
<path d="M5048 943 c7 -3 16 -2 19 1 4 3 -2 6 -13 5 -11 0 -14 -3 -6 -6z"/>
<path d="M2641 894 c0 -11 3 -14 6 -6 3 7 2 16 -1 19 -3 4 -6 -2 -5 -13z"/>
<path d="M2660 869 c0 -5 5 -7 10 -4 6 3 10 8 10 11 0 2 -4 4 -10 4 -5 0 -10
-5 -10 -11z"/>
<path d="M5008 853 c6 -2 18 -2 25 0 6 3 1 5 -13 5 -14 0 -19 -2 -12 -5z"/>
<path d="M2924 588 c-4 -13 -7 -29 -5 -36 1 -8 -3 -20 -9 -27 -14 -16 -50
-114 -50 -135 0 -8 -12 -37 -25 -65 -28 -56 -31 -73 -12 -56 8 6 17 8 20 4 4
-3 7 1 7 10 0 10 5 17 10 17 6 0 10 6 9 13 -1 6 1 19 4 27 8 21 54 198 61 238
6 37 1 42 -10 10z"/>
<path d="M480 586 l-45 -10 50 -7 c57 -9 245 9 245 23 0 12 -189 7 -250 -6z"/>
<path d="M6707 573 c-14 -13 -6 -21 38 -33 44 -12 70 -30 44 -30 -31 0 7 -14
68 -25 38 -7 104 -20 148 -28 115 -22 198 -30 191 -19 -3 5 -39 15 -81 22 -83
14 -100 25 -61 40 18 6 39 5 73 -5 55 -17 73 -18 73 -7 0 12 -223 62 -247 56
-12 -3 -62 3 -111 15 -94 22 -124 25 -135 14z"/>
<path d="M6956 408 c2 -4 30 -12 62 -18 31 -6 79 -18 106 -26 65 -18 82 -19
67 0 -9 11 -9 15 1 19 7 2 -6 10 -30 16 -47 13 -213 20 -206 9z m194 -18 c13
-1 13 -2 -1 -10 -18 -11 -59 -2 -59 12 0 6 10 8 23 4 12 -3 29 -6 37 -6z"/>
<path d="M6748 363 c6 -2 18 -2 25 0 6 3 1 5 -13 5 -14 0 -19 -2 -12 -5z"/>
<path d="M133 347 l-133 -9 0 -28 c0 -28 1 -28 78 -36 42 -4 147 -8 232 -8
132 -1 161 2 195 18 26 12 35 21 25 24 -8 3 -18 9 -21 14 -5 8 -210 40 -234
36 -5 0 -70 -5 -142 -11z"/>
<path d="M7155 320 c3 -5 16 -10 28 -9 21 0 21 1 2 9 -28 12 -37 12 -30 0z"/>
<path d="M3950 310 c20 -13 53 -13 45 0 -3 6 -18 10 -33 10 -21 0 -24 -2 -12
-10z"/>
<path d="M3905 300 c-19 -8 -19 -9 3 -9 12 -1 22 4 22 9 0 6 -1 10 -2 9 -2 0
-12 -4 -23 -9z"/>
<path d="M3975 279 c7 -11 35 -12 35 -1 0 4 -9 8 -20 9 -11 1 -18 -2 -15 -8z"/>
<path d="M4020 276 c0 -2 11 -6 25 -8 14 -3 25 -1 25 3 0 5 -11 9 -25 9 -14 0
-25 -2 -25 -4z"/>
<path d="M6885 241 c6 -5 62 -17 125 -26 63 -10 124 -22 135 -26 19 -7 19 -7
-3 -16 -23 -9 -22 -10 17 -25 l41 -16 0 37 c0 36 -1 37 -54 49 -30 7 -90 15
-133 18 -43 2 -91 7 -108 9 -18 3 -26 2 -20 -4z"/>
<path d="M3968 233 c6 -2 18 -2 25 0 6 3 1 5 -13 5 -14 0 -19 -2 -12 -5z"/>
<path d="M448 205 c-21 -8 -38 -11 -39 -7 0 4 -4 -3 -9 -14 -7 -18 -20 -23
-77 -28 -112 -12 -132 -16 -126 -32 4 -10 -3 -14 -23 -14 -16 0 -35 -4 -42 -9
-22 -13 80 -23 130 -12 23 6 77 15 118 21 41 7 109 18 150 27 137 27 130 24
78 39 -26 8 -50 19 -53 24 -3 6 -16 10 -28 10 -20 0 -20 -1 -2 -13 24 -18 7
-27 -25 -15 -15 6 -20 12 -12 15 13 5 17 23 5 22 -5 0 -25 -7 -45 -14z m-103
-65 c-3 -5 -10 -10 -16 -10 -5 0 -9 5 -9 10 0 6 7 10 16 10 8 0 12 -4 9 -10z"/>
<path d="M5370 202 c24 -15 107 -24 115 -12 3 5 -2 10 -13 10 -11 0 -41 3 -68
6 -33 3 -44 2 -34 -4z"/>
<path d="M2780 176 c-8 -11 -9 -20 -1 -33 10 -17 10 -17 11 0 0 10 4 16 9 13
5 -4 7 3 4 14 -6 24 -7 24 -23 6z"/>
<path d="M6675 185 c45 -13 106 -29 200 -51 61 -14 119 -31 130 -38 20 -12 67
-27 143 -46 67 -17 54 -35 -22 -30 -18 1 -26 -2 -22 -9 4 -6 27 -11 52 -11
l44 0 0 44 c0 43 -1 44 -38 50 -22 3 -50 14 -63 25 -14 10 -49 26 -79 35 -65
19 -65 19 -51 3 6 -8 9 -16 6 -19 -8 -7 -150 31 -153 42 -2 6 -38 10 -80 9
-42 0 -72 -2 -67 -4z"/>
<path d="M5588 173 c7 -3 16 -2 19 1 4 3 -2 6 -13 5 -11 0 -14 -3 -6 -6z"/>
<path d="M3726 115 c10 -8 37 -15 60 -15 22 0 63 -7 90 -15 27 -8 58 -14 69
-14 16 1 15 2 -6 8 -14 5 -35 14 -47 20 -12 6 -47 12 -77 12 -30 1 -58 5 -61
10 -3 5 -15 9 -27 9 -20 0 -20 0 -1 -15z"/>
<path d="M6585 80 l-50 -5 40 -9 c22 -4 60 -11 85 -16 25 -4 52 -10 61 -14 10
-5 16 -2 16 8 0 14 -32 29 -82 38 -11 2 -42 1 -70 -2z"/>
<path d="M45 63 c-19 -15 -19 -15 10 -8 37 8 57 25 30 25 -11 0 -29 -8 -40
-17z"/>
<path d="M488 73 c7 -3 16 -2 19 1 4 3 -2 6 -13 5 -11 0 -14 -3 -6 -6z"/>
<path d="M295 50 c3 -5 18 -10 32 -10 40 0 19 -12 -45 -26 l-57 -13 94 1 c91
2 172 15 188 32 4 4 -9 5 -29 1 -45 -8 -111 2 -103 16 4 5 -13 9 -40 9 -28 0
-44 -4 -40 -10z"/>
<path d="M6760 51 c0 -8 34 -21 55 -21 11 1 -35 29 -47 30 -5 0 -8 -4 -8 -9z"/>
<path d="M193 43 c9 -2 25 -2 35 0 9 3 1 5 -18 5 -19 0 -27 -2 -17 -5z"/>
<path d="M68 13 c6 -2 18 -2 25 0 6 3 1 5 -13 5 -14 0 -19 -2 -12 -5z"/>
<path d="M138 3 c7 -3 16 -2 19 1 4 3 -2 6 -13 5 -11 0 -14 -3 -6 -6z"/>
</g>
</svg>
