<?xml version="1.0" standalone="no"?>
<!DOCTYPE svg PUBLIC "-//W3C//DTD SVG 20010904//EN"
 "http://www.w3.org/TR/2001/REC-SVG-20010904/DTD/svg10.dtd">
<svg version="1.0" xmlns="http://www.w3.org/2000/svg"
 width="720.000000pt" height="720.000000pt" viewBox="0 0 720.000000 720.000000"
 preserveAspectRatio="xMidYMid meet">

<g transform="translate(0.000000,720.000000) scale(0.100000,-0.100000)"
fill="#000000" stroke="none">
<path d="M3533 7049 c-4 -14 -11 -18 -22 -14 -9 4 -21 9 -27 12 -6 2 -14 -2
-17 -11 -5 -13 21 -27 58 -30 18 -2 41 -21 65 -55 13 -19 19 -32 13 -28 -6 4
-13 1 -16 -5 -3 -10 -7 -10 -20 0 -9 8 -13 20 -10 28 3 9 -5 17 -22 24 -38 14
-65 12 -65 -5 0 -8 5 -15 10 -15 6 0 10 -4 10 -10 0 -5 -7 -10 -15 -10 -21 0
-19 -21 3 -27 20 -5 57 -52 48 -61 -4 -3 -13 4 -21 15 -8 11 -26 24 -40 27
-16 4 -25 13 -25 26 0 12 -10 25 -25 32 -34 15 -34 54 0 60 19 4 23 2 15 -7
-10 -12 -4 -25 12 -25 10 0 10 31 -1 48 -10 17 -77 6 -85 -14 -3 -8 -1 -26 5
-40 11 -32 5 -42 -15 -25 -11 10 -20 10 -36 1 -12 -7 -33 -9 -46 -6 -27 7 -97
-21 -89 -34 7 -11 86 -3 99 10 13 13 53 13 61 -1 10 -16 6 -17 -70 -24 -73 -7
-114 -25 -57 -25 39 0 41 -12 6 -35 -23 -15 -28 -15 -42 -2 -12 10 -24 12 -38
7 -30 -11 -39 -28 -39 -70 0 -25 -4 -34 -15 -33 -9 2 -21 -11 -29 -30 -31 -72
-39 -93 -46 -112 -16 -47 -34 -124 -40 -180 -9 -71 -12 -90 -20 -115 -5 -17
-3 -18 22 -10 15 5 35 9 43 8 30 -2 50 2 50 11 0 6 -15 11 -32 13 l-33 3 23
23 c26 26 63 32 42 7 -19 -23 -7 -27 27 -10 18 9 34 26 37 40 6 24 36 36 36
15 0 -6 12 -9 28 -8 45 3 72 -11 72 -36 0 -31 57 -86 89 -87 78 -5 101 -3 106
9 6 17 18 15 41 -7 11 -10 31 -22 45 -26 21 -7 22 -6 10 9 -7 9 -9 16 -3 16 5
0 15 -6 21 -14 6 -7 26 -16 43 -20 39 -8 58 -23 51 -42 -3 -7 2 -17 11 -20 13
-5 14 -10 5 -20 -6 -7 -8 -18 -4 -24 3 -5 1 -10 -4 -10 -6 0 -11 -3 -11 -7 0
-5 19 -8 43 -8 23 0 57 -3 75 -7 29 -7 32 -6 32 18 0 22 -2 23 -21 14 -19 -11
-34 -7 -34 8 -1 4 -7 18 -14 30 -15 27 -11 35 13 26 9 -4 15 -13 12 -20 -6
-16 10 -28 24 -19 6 4 3 16 -10 32 -34 44 -18 62 19 22 l20 -22 -2 41 c0 23 2
44 6 48 10 11 37 -16 37 -37 0 -11 5 -19 10 -19 6 0 10 -12 10 -27 1 -41 24
-67 55 -61 35 7 32 -16 -7 -51 -27 -24 -31 -32 -20 -42 21 -23 13 -32 -14 -15
-27 19 -48 18 -36 -1 4 -6 23 -14 43 -18 32 -6 37 -4 42 16 4 14 1 26 -6 31
-9 5 -5 14 13 32 l25 25 38 -19 c20 -10 37 -14 37 -9 0 5 5 9 10 9 6 0 10 -7
10 -16 0 -11 5 -14 16 -10 9 4 23 1 32 -6 13 -11 15 -10 10 9 -9 36 11 38 45
5 37 -35 137 -59 178 -43 37 14 67 52 74 96 9 50 26 105 41 128 8 13 8 30 1
63 -10 42 -9 48 9 63 11 9 23 23 26 32 9 24 -10 101 -29 114 -15 11 -15 13 0
21 20 11 12 54 -9 54 -10 0 -13 7 -9 23 5 18 -2 31 -32 58 -22 20 -38 40 -36
45 2 6 -6 19 -17 29 -15 14 -23 15 -33 6 -18 -14 -39 8 -43 47 -1 15 -10 32
-20 37 -9 6 -27 19 -38 30 -12 11 -26 19 -33 17 -6 -1 -14 2 -18 8 -3 5 -19
10 -36 10 -20 0 -29 5 -29 16 0 11 -6 15 -20 11 -13 -3 -20 0 -20 9 0 8 -7 14
-15 14 -8 0 -15 5 -15 10 0 6 -8 10 -17 10 -15 0 -15 2 2 14 18 13 18 14 -2
20 -12 4 -25 6 -29 4 -18 -4 -79 15 -96 29 -16 14 -18 14 -24 -1 -6 -17 -54
-23 -54 -6 0 5 8 14 18 20 16 11 16 11 -1 6 -10 -3 -35 -6 -55 -6 -28 0 -33
-3 -22 -10 13 -8 11 -11 -7 -16 -19 -5 -22 -11 -16 -33 6 -26 6 -26 -15 -7
-22 19 -18 35 12 57 13 10 -4 16 -59 23 -49 7 -50 7 -22 -9 15 -9 27 -21 27
-27 0 -9 -3 -9 -12 0 -19 19 -30 14 -18 -9 18 -32 1 -37 -22 -6 -11 15 -26 27
-35 27 -8 0 -21 7 -29 15 -21 21 -35 19 -41 -6z m67 -29 c13 -11 20 -20 17
-20 -14 0 -57 24 -57 32 0 14 16 9 40 -12z m207 -24 c-7 -14 -13 -23 -15 -21
-7 6 9 45 18 45 4 0 3 -11 -3 -24z m99 -2 c-4 -9 -1 -23 5 -31 14 -16 9 -25
-8 -15 -6 4 -15 20 -18 35 -6 21 -4 27 10 27 12 0 15 -5 11 -16z m-526 2 c0
-3 -4 -8 -10 -11 -5 -3 -10 -1 -10 4 0 6 5 11 10 11 6 0 10 -2 10 -4z m253
-18 c15 -7 27 -16 27 -20 0 -11 -18 -10 -25 2 -3 6 -15 10 -26 10 -10 0 -19 5
-19 10 0 13 10 13 43 -2z m224 -54 c11 -7 12 -13 5 -18 -14 -8 -32 25 -31 56
2 23 2 23 6 -2 3 -13 12 -29 20 -36z m-99 5 c-3 -8 -7 -3 -11 10 -4 17 -3 21
5 13 5 -5 8 -16 6 -23z m226 11 c14 -5 26 -16 26 -24 0 -13 -5 -12 -30 2 -16
9 -30 20 -30 25 0 9 4 9 34 -3z m-192 -35 c0 -5 -5 -11 -11 -13 -6 -2 -11 4
-11 13 0 9 5 15 11 13 6 -2 11 -8 11 -13z m-248 -14 c17 -19 17 -19 -3 -14
-12 3 -21 12 -21 19 0 18 4 18 24 -5z m-154 -1 c0 -5 -7 -10 -15 -10 -8 0 -15
5 -15 10 0 6 7 10 15 10 8 0 15 -4 15 -10z m500 0 c0 -5 -4 -10 -10 -10 -5 0
-10 5 -10 10 0 6 5 10 10 10 6 0 10 -4 10 -10z m-504 -88 c-11 -10 -55 35 -56
57 0 22 2 21 30 -14 17 -21 28 -40 26 -43z m369 0 c-11 -12 -35 23 -35 51 l0
31 20 -39 c11 -21 18 -41 15 -43z m46 68 c5 0 9 -5 9 -12 0 -7 12 -29 26 -50
15 -21 24 -42 20 -46 -4 -4 -12 2 -18 12 -6 10 -26 36 -44 56 -37 41 -43 56
-18 46 9 -3 20 -6 25 -6z m226 -27 c-3 -10 -5 -4 -5 12 0 17 2 24 5 18 2 -7 2
-21 0 -30z m-722 17 c3 -5 -1 -10 -9 -10 -9 0 -16 5 -16 10 0 6 4 10 9 10 6 0
13 -4 16 -10z m901 -19 c-10 -16 -36 -13 -36 3 0 17 21 27 34 16 4 -5 5 -13 2
-19z m-729 -17 c10 -26 -1 -22 -26 9 -24 29 -24 30 -2 18 12 -7 25 -19 28 -27z
m83 -14 c8 -5 12 -11 10 -14 -3 -2 -14 2 -24 10 -22 15 -10 19 14 4z m121 -13
c-7 -7 -20 -7 -43 1 -25 9 -27 10 -6 7 15 -3 30 0 33 5 4 6 11 7 17 4 6 -4 6
-10 -1 -17z m239 -19 c0 -6 -6 -5 -15 2 -8 7 -15 14 -15 16 0 2 7 1 15 -2 8
-4 15 -11 15 -16z m-662 -7 c15 -9 15 -10 -3 -17 -11 -4 -23 -12 -26 -17 -4
-5 -17 -3 -30 6 -13 8 -36 17 -51 21 -16 4 -28 10 -28 15 0 11 116 4 138 -8z
m138 -19 c-10 -10 -29 15 -21 28 6 9 10 8 17 -4 6 -10 7 -20 4 -24z m394 1 c0
-13 -3 -13 -15 -3 -8 7 -12 16 -9 21 8 13 24 1 24 -18z m-265 -3 c3 -5 2 -10
-4 -10 -5 0 -13 5 -16 10 -3 6 -2 10 4 10 5 0 13 -4 16 -10z m406 -33 c-8 -8
-11 -3 -11 19 1 25 2 27 11 11 8 -14 8 -22 0 -30z m-782 13 c4 0 15 -14 25
-31 l18 -31 -33 7 c-41 9 -36 4 -45 39 -6 25 -5 28 10 23 10 -4 21 -7 25 -7z
m277 -5 c17 -16 14 -18 -10 -9 -9 3 -16 10 -16 15 0 13 9 11 26 -6z m-131 -15
c3 -5 1 -10 -4 -10 -6 0 -11 5 -11 10 0 6 2 10 4 10 3 0 8 -4 11 -10z m-49
-17 c15 -20 19 -57 5 -49 -11 7 -32 66 -24 66 3 0 12 -8 19 -17z m284 -3 c0
-5 -2 -10 -4 -10 -3 0 -8 5 -11 10 -3 6 -1 10 4 10 6 0 11 -4 11 -10z m823 4
c3 -3 3 -13 0 -21 -5 -12 -7 -12 -14 -1 -15 23 -4 40 14 22z m-391 -39 c3 -14
1 -28 -3 -31 -5 -3 -9 1 -9 8 0 7 -3 24 -7 37 -4 16 -2 22 4 18 6 -4 13 -18
15 -32z m-552 1 c0 -23 -16 -27 -17 -5 -1 10 2 19 8 19 5 0 9 -6 9 -14z m237
-38 c-2 -13 -4 -5 -4 17 -1 22 1 32 4 23 2 -10 2 -28 0 -40z m72 1 c13 -42 7
-65 -9 -39 -6 8 -10 25 -10 37 0 12 -4 25 -10 28 -15 9 -12 25 4 19 7 -3 19
-23 25 -45z m111 4 c0 -7 -4 -13 -10 -13 -5 0 -10 12 -10 28 0 21 2 24 10 12
5 -8 10 -21 10 -27z m-680 13 c0 -21 -11 -46 -20 -46 -4 0 -7 13 -6 30 1 29
26 44 26 16z m153 0 c3 -8 -2 -16 -14 -19 -11 -3 -19 0 -19 7 0 26 24 35 33
12z m-234 -37 c-23 -23 -39 -25 -39 -4 0 8 7 15 15 15 8 0 15 4 15 10 0 5 6 7
14 4 12 -5 11 -9 -5 -25z m849 3 c2 -7 -2 -10 -12 -6 -9 3 -16 11 -16 16 0 13
23 5 28 -10z m-452 -27 c20 -31 25 -137 6 -162 -11 -15 -13 -6 -10 63 3 69 0
85 -16 103 -11 12 -14 21 -8 21 6 0 19 -11 28 -25z m378 0 c9 -14 14 -25 12
-25 -8 0 -36 31 -36 41 0 15 7 10 24 -16z m-577 -7 c-3 -8 -6 -5 -6 6 -1 11 2
17 5 13 3 -3 4 -12 1 -19z m372 -16 c0 -24 -1 -25 -9 -7 -12 28 -12 47 0 40 6
-3 10 -18 9 -33z m-242 -17 c-1 -19 -4 -35 -8 -35 -8 0 -18 58 -11 65 13 13
20 2 19 -30z m-367 9 c0 -8 -4 -12 -10 -9 -5 3 -10 10 -10 16 0 5 5 9 10 9 6
0 10 -7 10 -16z m300 -20 c-18 -21 -24 -10 -9 18 8 14 14 18 17 10 2 -7 -2
-19 -8 -28z m460 26 c0 -5 -4 -10 -10 -10 -5 0 -10 5 -10 10 0 6 5 10 10 10 6
0 10 -4 10 -10z m-623 -13 c5 -6 -8 -37 -17 -37 -4 0 -17 9 -30 20 -25 22 -40
26 -40 10 0 -5 5 -10 10 -10 6 0 10 -4 10 -10 0 -5 -6 -10 -14 -10 -8 0 -24
-13 -36 -30 -26 -36 -36 -38 -42 -5 -3 13 -2 22 2 20 13 -8 50 26 50 47 0 19
4 20 51 15 29 -4 53 -8 56 -10z m431 -24 c15 -33 16 -99 1 -108 -17 -11 -24 5
-11 26 14 21 8 74 -9 84 -11 7 -12 25 -1 25 4 0 13 -12 20 -27z m-368 -13 c0
-11 -4 -20 -10 -20 -5 0 -10 9 -10 20 0 11 5 20 10 20 6 0 10 -9 10 -20z m417
-12 c-3 -7 -5 -2 -5 12 0 14 2 19 5 13 2 -7 2 -19 0 -25z m163 22 c0 -5 -4
-10 -9 -10 -6 0 -13 5 -16 10 -3 6 1 10 9 10 9 0 16 -4 16 -10z m-86 -17 c3
-10 9 -25 12 -33 3 -8 -4 -4 -15 10 -22 27 -26 40 -12 40 5 0 11 -8 15 -17z
m-310 -72 c0 -22 -4 -45 -11 -52 -8 -8 -11 5 -12 52 0 46 2 60 10 52 7 -7 12
-30 13 -52z m126 22 c0 -30 -3 -35 -12 -25 -17 17 -17 62 -1 62 8 0 13 -13 13
-37z m-370 17 c0 -5 -18 -15 -40 -21 -22 -7 -40 -16 -40 -22 0 -5 6 -7 14 -4
20 8 27 -3 16 -23 -9 -18 -60 -25 -60 -9 0 5 5 9 12 9 6 0 2 8 -10 18 -20 18
-20 18 -1 30 10 7 32 12 48 12 17 0 33 5 36 10 8 13 25 13 25 0z m700 -26 c0
-8 -5 -12 -10 -9 -6 4 -8 11 -5 16 9 14 15 11 15 -7z m-34 -15 c19 -22 19 -22
-3 -10 -13 6 -23 16 -23 21 0 15 5 12 26 -11z m-95 -52 c-8 -8 -11 -5 -11 9 0
27 14 41 18 19 2 -9 -1 -22 -7 -28z m-36 -45 c-11 -29 -25 3 -18 43 l7 40 8
-34 c5 -18 7 -40 3 -49z m155 -32 c0 -11 -4 -20 -10 -20 -5 0 -10 2 -10 4 0 2
-3 11 -6 20 -4 11 -1 16 10 16 9 0 16 -8 16 -20z m-190 0 c0 -5 -4 -10 -10
-10 -5 0 -10 5 -10 10 0 6 5 10 10 10 6 0 10 -4 10 -10z m-70 -40 c0 -5 -5
-10 -11 -10 -5 0 -7 5 -4 10 3 6 8 10 11 10 2 0 4 -4 4 -10z m327 -47 c-9 -9
-20 -13 -24 -9 -4 4 -1 11 7 16 25 16 35 11 17 -7z m203 -73 c0 -5 -5 -10 -11
-10 -5 0 -7 5 -4 10 3 6 8 10 11 10 2 0 4 -4 4 -10z"/>
<path d="M3140 6700 c0 -5 5 -10 11 -10 5 0 7 5 4 10 -3 6 -8 10 -11 10 -2 0
-4 -4 -4 -10z"/>
<path d="M4070 6990 c0 -5 5 -10 11 -10 5 0 7 5 4 10 -3 6 -8 10 -11 10 -2 0
-4 -4 -4 -10z"/>
<path d="M6762 6980 c0 -14 2 -19 5 -12 2 6 2 18 0 25 -3 6 -5 1 -5 -13z"/>
<path d="M3283 6973 c-26 -10 -12 -19 22 -15 19 2 32 8 29 13 -6 10 -31 11
-51 2z"/>
<path d="M6756 6898 c-3 -13 -5 -50 -4 -83 1 -59 1 -59 8 20 8 83 7 103 -4 63z"/>
<path d="M6771 6763 c-6 -65 -13 -134 -15 -153 -1 -19 -4 3 -6 50 -4 95 -4 92
-25 -175 -8 -104 -22 -278 -30 -385 -9 -107 -22 -292 -30 -410 -8 -118 -25
-361 -39 -540 -13 -179 -27 -372 -31 -430 -3 -58 -12 -181 -20 -275 -8 -93
-24 -305 -35 -470 -11 -165 -29 -419 -40 -565 -11 -146 -27 -364 -35 -485 -8
-121 -20 -274 -25 -340 -21 -257 -21 -253 -2 -258 16 -4 16 -5 0 -6 -10 0 -18
-5 -18 -11 0 -13 31 -13 50 1 11 8 12 12 3 16 -23 9 -14 20 29 32 78 24 91 31
81 44 -6 7 -5 74 3 177 8 91 16 228 19 305 3 77 10 196 15 265 6 69 17 211 25
315 8 105 15 222 15 262 0 39 4 83 10 97 l10 26 137 0 c76 0 144 -4 152 -9 10
-6 12 -21 7 -52 -3 -24 -8 -114 -11 -199 -6 -197 -14 -369 -20 -440 -3 -30 -7
-102 -10 -160 -3 -58 -10 -186 -15 -284 -6 -99 -8 -181 -6 -184 2 -2 32 6 65
19 56 20 61 24 62 53 0 17 2 45 4 61 1 17 5 104 9 195 4 91 9 177 12 191 3 14
6 66 8 115 18 446 22 471 100 678 l26 68 0 1228 c0 1219 0 1228 -20 1233 -11
3 -20 10 -20 15 0 5 9 12 20 15 14 3 20 14 20 31 0 26 -1 26 -80 26 -81 0
-107 14 -47 25 18 4 37 6 42 5 6 -2 27 -2 48 -1 l37 1 0 65 0 65 -158 0 -159
0 -1 -52 c-2 -59 5 -77 34 -82 11 -2 46 -22 79 -44 33 -21 76 -43 95 -47 l35
-8 -32 -15 c-18 -9 -33 -21 -33 -28 0 -7 -6 -14 -12 -17 -7 -2 11 -7 40 -11
58 -9 68 -23 22 -32 -20 -5 -30 -12 -30 -25 0 -10 -17 -36 -37 -57 -21 -21
-75 -80 -121 -130 -79 -87 -84 -95 -99 -164 -9 -40 -20 -140 -24 -223 -11
-199 -25 -400 -39 -565 -6 -74 -13 -159 -15 -189 -2 -30 -9 -57 -17 -62 -7 -5
-8 -9 -2 -9 7 0 8 -20 2 -62 -4 -35 -7 -85 -7 -113 1 -27 -3 -61 -8 -74 l-9
-24 -13 32 c-8 17 -17 31 -22 31 -5 0 -9 23 -9 50 0 28 5 50 10 50 6 0 10 -4
10 -10 0 -5 7 -10 15 -10 11 0 13 12 10 61 -4 70 -10 80 -30 53 -13 -17 -14
-15 -15 34 0 29 4 94 10 145 8 82 15 184 36 537 4 58 8 108 11 112 2 5 4 76 4
159 -1 92 3 159 10 171 6 12 15 78 20 147 4 69 13 196 19 281 5 85 15 218 20
295 12 171 12 165 1 165 -4 0 -13 -53 -20 -117z m-24 -280 c-2 -16 -4 -3 -4
27 0 30 2 43 4 28 2 -16 2 -40 0 -55z m-38 -1993 c-1 -79 -14 -101 -22 -37 -2
23 -8 51 -12 62 -6 16 -5 17 4 5 9 -13 11 -12 11 6 0 18 8 34 16 34 2 0 3 -31
3 -70z m-62 8 c-3 -8 -6 -5 -6 6 -1 11 2 17 5 13 3 -3 4 -12 1 -19z m20 -94
c-3 -3 -12 -4 -19 -1 -8 3 -5 6 6 6 11 1 17 -2 13 -5z m29 -72 c-7 -6 -35 27
-36 42 0 5 7 3 15 -4 12 -10 15 -9 16 6 1 11 4 6 6 -9 3 -16 2 -31 -1 -35z
m-9 -74 c-2 -13 -4 -5 -4 17 -1 22 1 32 4 23 2 -10 2 -28 0 -40z m-42 -18 c3
-5 1 -10 -4 -10 -6 0 -11 5 -11 10 0 6 2 10 4 10 3 0 8 -4 11 -10z m42 -52
c-3 -8 -6 -5 -6 6 -1 11 2 17 5 13 3 -3 4 -12 1 -19z m-10 -65 c-3 -10 -5 -4
-5 12 0 17 2 24 5 18 2 -7 2 -21 0 -30z"/>
<path d="M3150 6860 c0 -5 5 -10 11 -10 5 0 7 5 4 10 -3 6 -8 10 -11 10 -2 0
-4 -4 -4 -10z"/>
<path d="M3130 6350 c0 -5 23 -10 50 -10 33 0 50 -4 50 -12 0 -9 3 -8 10 2 7
11 5 17 -8 22 -27 10 -102 9 -102 -2z"/>
<path d="M3155 6291 c-6 -11 9 -23 19 -14 9 9 7 23 -3 23 -6 0 -12 -4 -16 -9z"/>
<path d="M2936 6198 c-9 -35 -7 -138 3 -138 5 0 9 36 9 80 1 44 -1 80 -2 80
-2 0 -6 -10 -10 -22z"/>
<path d="M3595 6189 c-9 -14 -2 -20 14 -10 8 6 9 11 3 15 -6 3 -14 1 -17 -5z"/>
<path d="M3750 6022 c0 -11 39 -12 45 -1 4 5 -5 9 -19 9 -14 0 -26 -4 -26 -8z"/>
<path d="M2847 5997 c-36 -13 -78 -40 -110 -69 -42 -39 -59 -48 -88 -48 -51 0
-116 -22 -173 -58 -47 -30 -57 -44 -15 -22 15 9 19 7 19 -5 0 -9 -6 -17 -12
-19 -7 -2 -27 -8 -45 -13 -26 -9 -31 -8 -26 3 4 12 1 13 -21 3 -26 -12 -35
-29 -16 -29 6 0 10 -5 10 -11 0 -6 -7 -8 -16 -5 -9 4 -23 1 -30 -5 -7 -6 -17
-8 -23 -5 -5 3 -23 -5 -39 -19 -16 -14 -36 -25 -43 -24 -8 0 -5 4 6 9 11 5 14
9 8 9 -7 1 -34 -10 -60 -24 -27 -13 -77 -37 -113 -53 -72 -32 -119 -66 -108
-78 5 -4 17 1 29 11 16 16 22 17 29 6 4 -8 15 -11 24 -8 9 4 16 1 16 -4 0 -7
-11 -9 -25 -7 -18 4 -32 -2 -50 -20 -14 -13 -25 -29 -25 -33 0 -5 -7 -9 -15
-9 -22 0 -105 -89 -98 -106 3 -8 0 -14 -6 -14 -17 0 -84 -70 -115 -118 -22
-36 -30 -41 -42 -32 -22 19 -67 -37 -94 -117 -12 -37 -28 -81 -35 -98 -7 -16
-19 -55 -28 -85 -8 -30 -31 -113 -51 -185 -54 -199 -68 -286 -73 -455 -2 -85
-5 -173 -8 -195 -7 -65 -22 -159 -29 -183 -8 -25 11 -63 48 -95 53 -47 246
-122 396 -153 76 -16 257 -18 296 -4 25 10 26 9 20 -17 -8 -30 -16 -92 -42
-323 -9 -83 -29 -187 -45 -244 -16 -54 -29 -116 -29 -138 0 -35 4 -41 46 -66
25 -15 156 -101 292 -190 276 -183 295 -194 437 -245 196 -70 304 -97 245 -61
-24 14 -23 15 30 11 40 -3 64 0 91 15 20 10 52 21 70 24 46 8 271 -39 314 -65
27 -15 41 -18 59 -11 37 14 127 9 133 -7 3 -7 17 -12 32 -11 26 1 99 -9 134
-19 12 -3 16 -11 12 -24 -5 -16 -1 -19 27 -19 l33 1 -25 21 -25 21 55 -7 c30
-4 70 -11 87 -17 28 -9 31 -13 23 -30 -7 -13 -7 -19 0 -19 5 0 10 4 10 9 0 6
9 8 20 6 11 -2 20 0 20 6 0 5 9 9 20 9 11 0 20 -4 20 -9 0 -15 98 -4 137 14
25 12 38 14 46 6 8 -8 6 -11 -6 -11 -9 0 -17 -4 -17 -9 0 -5 21 -4 48 3 26 7
53 11 61 8 10 -3 12 8 7 54 -3 32 -11 61 -18 65 -41 25 -304 39 -623 33 -247
-6 -324 -4 -435 10 -203 25 -192 19 -141 69 24 23 96 121 161 218 133 200 330
449 439 557 96 95 151 122 253 129 43 3 78 7 78 8 0 2 -16 29 -35 61 -19 32
-35 65 -35 74 0 9 -7 25 -15 36 -8 10 -15 31 -15 46 0 33 -93 214 -123 243
-49 45 -49 56 -6 145 36 74 103 246 140 360 10 32 20 46 34 48 18 2 26 -12 57
-95 40 -109 61 -131 151 -158 136 -40 354 13 451 110 35 34 63 106 50 126 -19
31 -36 148 -38 254 -1 104 -5 128 -28 185 -15 36 -47 122 -73 193 -40 111
-111 264 -136 291 -4 5 -3 20 2 34 12 32 -6 72 -32 72 -23 0 -35 20 -19 30 9
6 5 22 -19 66 -17 33 -41 70 -52 84 l-20 25 7 -27 c5 -22 -3 -35 -53 -85 -47
-47 -76 -66 -148 -96 -100 -42 -191 -50 -232 -22 -12 8 -45 20 -75 25 -29 6
-62 15 -73 20 -17 7 -166 30 -197 30 -16 0 3 -21 30 -33 26 -11 26 -12 -18
-15 -48 -3 -115 -41 -75 -42 12 -1 6 -6 -17 -14 -21 -7 -49 -11 -64 -8 -23 4
-25 2 -19 -17 5 -18 2 -21 -24 -21 -31 0 -51 22 -51 55 0 10 -11 30 -25 47
-23 27 -25 28 -25 8 0 -11 7 -23 16 -27 8 -3 13 -11 10 -18 -2 -7 10 -34 28
-61 18 -27 33 -59 33 -70 8 -125 83 -182 229 -171 120 9 261 86 317 173 16 24
30 34 47 34 24 0 27 -6 38 -59 11 -50 18 -62 50 -85 21 -14 43 -26 50 -26 7 0
12 -6 12 -14 0 -30 -115 -234 -158 -281 -26 -27 -60 -68 -77 -90 -64 -84 -154
-164 -198 -176 -71 -19 -167 -7 -243 32 l-66 34 -22 -26 c-35 -41 -66 -57
-136 -71 -95 -20 -128 -9 -193 62 -57 64 -125 191 -236 440 -133 301 -166 529
-96 659 16 29 40 61 52 71 21 17 23 22 13 62 -15 69 -12 123 8 141 24 22 39
21 85 -2 43 -22 51 -15 45 36 -4 35 -19 37 -91 10z m1590 -503 c29 -64 22 -84
-23 -63 -43 22 -50 41 -30 83 9 20 19 36 22 36 3 0 17 -25 31 -56z m-814 -121
c-7 -2 -19 -2 -25 0 -7 3 -2 5 12 5 14 0 19 -2 13 -5z m447 -30 c0 -14 -34
-43 -51 -43 -16 0 -39 27 -39 44 0 3 20 6 45 6 25 0 45 -3 45 -7z m339 -108
c-26 -28 -90 -65 -111 -65 -7 1 3 9 22 20 19 10 51 32 70 48 41 36 53 33 19
-3z m-59 -75 c0 -5 -5 -10 -11 -10 -5 0 -7 5 -4 10 3 6 8 10 11 10 2 0 4 -4 4
-10z m-2727 -37 c-7 -2 -13 -12 -13 -20 0 -9 -3 -14 -6 -10 -10 10 4 37 18 36
10 0 10 -2 1 -6z m2057 -1645 c0 -22 -37 -24 -62 -4 -23 17 -23 32 -1 44 21
12 62 -15 63 -40z m735 -1178 c8 -13 -17 -38 -33 -32 -16 5 -16 29 1 35 19 8
25 8 32 -3z m-150 -20 c-3 -5 -10 -10 -16 -10 -5 0 -9 5 -9 10 0 6 7 10 16 10
8 0 12 -4 9 -10z m-47 -17 c-2 -10 -10 -18 -18 -18 -8 0 -16 8 -18 18 -2 12 3
17 18 17 15 0 20 -5 18 -17z"/>
<path d="M2970 5886 c0 -7 16 -21 35 -30 19 -9 41 -29 49 -45 8 -15 22 -34 32
-42 9 -8 23 -27 31 -44 l14 -30 -6 30 c-4 17 -11 32 -16 33 -5 2 -9 9 -9 16 0
13 -43 74 -77 109 -20 20 -53 23 -53 3z"/>
<path d="M3280 5466 c0 -9 5 -16 10 -16 6 0 10 4 10 9 0 6 -4 13 -10 16 -5 3
-10 -1 -10 -9z"/>
<path d="M6680 4900 c0 -11 5 -20 10 -20 6 0 10 9 10 20 0 11 -4 20 -10 20 -5
0 -10 -9 -10 -20z"/>
<path d="M3190 4832 c-26 -8 -50 -34 -50 -53 0 -16 4 -17 30 -8 17 6 30 15 30
20 0 5 12 9 26 9 14 0 22 4 19 10 -10 16 -39 28 -55 22z"/>
<path d="M615 3990 c-17 -7 -15 -9 13 -9 17 -1 32 4 32 9 0 12 -17 12 -45 0z"/>
<path d="M675 3890 c-3 -5 -1 -10 4 -10 6 0 11 5 11 10 0 6 -2 10 -4 10 -3 0
-8 -4 -11 -10z"/>
<path d="M865 3890 c-16 -7 -17 -9 -3 -9 9 -1 20 4 23 9 7 11 7 11 -20 0z"/>
<path d="M1005 3880 c-3 -5 -2 -10 4 -10 5 0 13 5 16 10 3 6 2 10 -4 10 -5 0
-13 -4 -16 -10z"/>
<path d="M808 3873 c7 -3 16 -2 19 1 4 3 -2 6 -13 5 -11 0 -14 -3 -6 -6z"/>
<path d="M730 3800 c0 -5 7 -10 16 -10 8 0 12 5 9 10 -3 6 -10 10 -16 10 -5 0
-9 -4 -9 -10z"/>
<path d="M775 3800 c-3 -5 -1 -10 4 -10 6 0 11 5 11 10 0 6 -2 10 -4 10 -3 0
-8 -4 -11 -10z"/>
<path d="M955 3800 c3 -5 10 -10 16 -10 5 0 9 5 9 10 0 6 -7 10 -16 10 -8 0
-12 -4 -9 -10z"/>
<path d="M880 3780 c0 -5 9 -10 20 -10 11 0 20 5 20 10 0 6 -9 10 -20 10 -11
0 -20 -4 -20 -10z"/>
<path d="M1088 3778 c9 -9 15 -9 24 0 9 9 7 12 -12 12 -19 0 -21 -3 -12 -12z"/>
<path d="M827 3765 c-8 -19 13 -31 24 -14 13 20 11 29 -5 29 -8 0 -16 -7 -19
-15z"/>
<path d="M1030 3770 c-13 -8 -13 -10 2 -10 9 0 20 5 23 10 8 13 -5 13 -25 0z"/>
<path d="M797 3700 c3 -10 11 -21 18 -24 8 -3 11 2 8 14 -3 10 -11 21 -18 24
-8 3 -11 -2 -8 -14z"/>
<path d="M985 3699 c-4 -6 -5 -12 -2 -15 7 -7 37 7 37 17 0 13 -27 11 -35 -2z"/>
<path d="M1123 3683 c-35 -8 -63 -19 -63 -24 0 -12 17 -11 25 1 4 6 14 8 24 5
9 -3 35 4 57 15 45 22 41 23 -43 3z"/>
<path d="M949 3686 c-3 -3 -20 -7 -39 -9 -50 -5 -78 -22 -63 -38 10 -10 17 -9
32 5 25 23 60 14 41 -9 -8 -10 -9 -15 -2 -15 6 0 14 5 17 10 3 6 17 10 30 10
13 0 26 4 29 8 3 5 -9 6 -26 4 -28 -4 -29 -3 -19 17 11 19 11 27 0 17z"/>
<path d="M1315 3670 c3 -5 8 -10 11 -10 2 0 4 5 4 10 0 6 -5 10 -11 10 -5 0
-7 -4 -4 -10z"/>
<path d="M1005 3599 c8 -12 -63 -32 -90 -25 -19 5 -22 2 -18 -12 3 -13 15 -18
43 -18 22 -1 37 2 35 6 -9 14 24 32 47 25 16 -4 19 -4 9 3 -11 8 -10 11 5 14
15 3 13 5 -8 10 -15 3 -25 2 -23 -3z"/>
<path d="M1180 3586 c-14 -7 -42 -16 -62 -20 -25 -5 -38 -12 -38 -23 0 -14 2
-14 19 1 12 11 27 15 43 11 18 -5 27 -2 31 9 4 9 18 16 32 16 15 0 24 4 20 10
-8 13 -14 12 -45 -4z"/>
<path d="M1020 3550 c-9 -6 -10 -10 -3 -10 6 0 15 5 18 10 8 12 4 12 -15 0z"/>
<path d="M1280 3550 c0 -5 5 -10 10 -10 6 0 10 5 10 10 0 6 -4 10 -10 10 -5 0
-10 -4 -10 -10z"/>
<path d="M958 3523 c6 -2 18 -2 25 0 6 3 1 5 -13 5 -14 0 -19 -2 -12 -5z"/>
<path d="M996 3471 c-37 -18 -38 -19 -18 -30 17 -9 22 -8 27 9 4 14 15 20 36
20 18 0 28 4 24 10 -9 14 -24 12 -69 -9z"/>
<path d="M1180 3471 c-58 -20 -72 -30 -64 -42 3 -6 11 -3 18 7 9 12 20 15 39
10 20 -5 27 -3 27 9 0 10 10 15 29 15 17 0 33 5 36 10 9 14 -33 10 -85 -9z"/>
<path d="M1262 3440 c-13 -12 -22 -33 -22 -49 0 -21 -6 -31 -22 -36 -13 -4
-26 -7 -30 -6 -12 1 -133 -40 -142 -49 -9 -9 20 -3 125 25 98 27 101 24 97
-90 -2 -59 1 -98 8 -105 8 -8 13 11 17 66 10 107 9 264 -1 264 -5 0 -18 -9
-30 -20z"/>
<path d="M1064 3385 c-4 -8 -15 -15 -25 -15 -10 0 -19 -4 -19 -10 0 -16 37
-12 54 6 9 8 14 20 11 25 -9 13 -15 11 -21 -6z"/>
<path d="M680 3170 c-8 -5 -11 -12 -8 -15 4 -4 17 0 30 9 24 17 5 23 -22 6z"/>
<path d="M757 3143 c11 -32 15 -35 24 -22 8 12 11 11 19 -1 6 -9 10 -10 10 -3
0 12 -38 43 -52 43 -4 0 -5 -8 -1 -17z"/>
<path d="M1243 2911 c-18 -35 -30 -67 -27 -72 9 -16 45 -164 46 -194 1 -16 8
-46 16 -65 13 -31 15 -33 22 -15 4 11 2 86 -6 165 -7 80 -15 168 -16 195 l-3
50 -32 -64z"/>
<path d="M6655 2840 c-3 -5 -2 -10 4 -10 5 0 13 5 16 10 3 6 2 10 -4 10 -5 0
-13 -4 -16 -10z"/>
<path d="M7186 2680 c2 -71 14 -76 14 -7 0 32 -3 57 -7 57 -5 0 -7 -23 -7 -50z"/>
<path d="M7159 2233 c-52 -71 -53 -73 -33 -87 16 -12 16 -14 -2 -27 -11 -8
-19 -25 -18 -42 1 -16 -6 -31 -15 -37 -13 -7 -12 -10 10 -18 14 -6 41 -12 59
-14 31 -3 33 -1 35 34 3 35 1 37 -29 41 l-31 3 33 8 32 9 0 88 c0 49 -1 89 -3
89 -2 0 -19 -21 -38 -47z"/>
<path d="M3208 2263 c7 -3 16 -2 19 1 4 3 -2 6 -13 5 -11 0 -14 -3 -6 -6z"/>
<path d="M6208 2233 c-10 -2 -18 -9 -18 -14 0 -14 34 -11 56 6 19 14 19 14 -1
14 -11 -1 -28 -3 -37 -6z"/>
<path d="M4000 2210 c0 -5 4 -10 9 -10 6 0 13 5 16 10 3 6 -1 10 -9 10 -9 0
-16 -4 -16 -10z"/>
<path d="M4432 2190 c0 -14 2 -19 5 -12 2 6 2 18 0 25 -3 6 -5 1 -5 -13z"/>
<path d="M5992 2188 c5 -15 28 -18 29 -3 0 6 -7 12 -17 13 -10 3 -15 -1 -12
-10z"/>
<path d="M4160 2140 c0 -5 5 -10 10 -10 6 0 10 5 10 10 0 6 -4 10 -10 10 -5 0
-10 -4 -10 -10z"/>
<path d="M4442 2110 c0 -19 2 -27 5 -17 2 9 2 25 0 35 -3 9 -5 1 -5 -18z"/>
<path d="M2225 2072 c17 -10 38 -21 48 -25 9 -3 17 -13 17 -22 0 -8 7 -15 15
-15 8 0 15 5 15 11 0 5 5 7 10 4 8 -5 7 -11 -1 -21 -9 -11 -9 -14 1 -14 8 0
10 -15 7 -52 -7 -77 -17 -136 -28 -164 -13 -36 -11 -43 6 -14 8 14 14 35 15
46 0 12 7 27 15 34 8 7 15 9 15 5 0 -4 6 -2 13 4 8 6 17 8 21 4 4 -4 4 12 0
35 -6 40 -5 42 18 42 13 0 30 6 37 13 10 10 15 8 25 -6 13 -16 14 -16 19 3 6
25 67 30 67 5 0 -13 4 -14 22 -4 20 11 18 13 -38 40 -33 15 -91 35 -128 43
-38 9 -96 27 -130 41 -73 29 -104 33 -61 7z m152 -68 c-3 -3 -12 -4 -19 -1 -8
3 -5 6 6 6 11 1 17 -2 13 -5z"/>
<path d="M4008 2073 c6 -2 18 -2 25 0 6 3 1 5 -13 5 -14 0 -19 -2 -12 -5z"/>
<path d="M3883 2063 c9 -2 23 -2 30 0 6 3 -1 5 -18 5 -16 0 -22 -2 -12 -5z"/>
<path d="M4447 2043 c-2 -5 -1 -30 3 -58 l7 -50 2 58 c1 54 -2 67 -12 50z"/>
<path d="M4663 1871 c-188 -75 -342 -139 -343 -143 0 -4 17 -10 38 -14 52 -9
55 -13 37 -41 -16 -24 -15 -26 19 -61 166 -173 231 -255 221 -280 -3 -7 -5
-20 -5 -28 0 -7 -11 -16 -25 -20 -30 -7 -32 -25 -6 -41 17 -10 22 -6 50 38 17
28 31 52 31 55 0 2 26 50 58 107 31 56 66 118 76 139 40 74 83 123 132 148 27
14 52 28 55 33 3 4 19 11 35 16 39 10 41 35 10 110 -14 33 -26 72 -26 85 0 14
-3 27 -7 29 -5 2 -162 -57 -350 -132z"/>
<path d="M2510 1940 c0 -5 7 -10 16 -10 8 0 12 5 9 10 -3 6 -10 10 -16 10 -5
0 -9 -4 -9 -10z"/>
<path d="M2638 1933 c7 -3 16 -2 19 1 4 3 -2 6 -13 5 -11 0 -14 -3 -6 -6z"/>
<path d="M2680 1920 c8 -5 22 -10 30 -10 13 0 13 1 0 10 -8 5 -22 10 -30 10
-13 0 -13 -1 0 -10z"/>
<path d="M5210 1896 c0 -26 15 -43 24 -28 7 12 -4 52 -15 52 -5 0 -9 -11 -9
-24z"/>
<path d="M2505 1900 c-3 -5 3 -10 15 -10 12 0 18 5 15 10 -3 6 -10 10 -15 10
-5 0 -12 -4 -15 -10z"/>
<path d="M4451 1888 c1 -13 4 -34 9 -48 6 -21 7 -17 8 18 0 23 -4 45 -9 48 -5
3 -9 -5 -8 -18z"/>
<path d="M2640 1750 c0 -5 7 -7 15 -4 8 4 15 8 15 10 0 2 -7 4 -15 4 -8 0 -15
-4 -15 -10z"/>
<path d="M2265 1660 c-3 -5 1 -10 9 -10 9 0 16 5 16 10 0 6 -4 10 -9 10 -6 0
-13 -4 -16 -10z"/>
<path d="M2240 1628 c0 -22 17 -41 29 -34 16 10 14 20 -9 34 -16 10 -20 10
-20 0z"/>
<path d="M4350 1485 c21 -28 82 -86 87 -82 4 5 -51 62 -83 87 -18 14 -18 14
-4 -5z"/>
<path d="M5808 1443 c7 -3 16 -2 19 1 4 3 -2 6 -13 5 -11 0 -14 -3 -6 -6z"/>
<path d="M3368 1368 c-71 -28 -128 -54 -128 -57 0 -3 20 -19 45 -34 25 -16 45
-33 45 -37 0 -5 -24 -17 -54 -26 -42 -13 -60 -15 -85 -6 -19 7 -29 7 -26 1 9
-13 -103 -61 -126 -54 -10 4 -27 18 -38 32 -17 21 -25 23 -47 16 -15 -5 -32
-17 -38 -26 -17 -26 -4 -37 334 -280 36 -26 103 -76 150 -111 90 -69 195 -146
325 -241 44 -32 106 -78 138 -102 31 -23 60 -43 63 -43 3 0 28 -18 55 -41 52
-44 129 -66 129 -38 0 8 23 51 50 97 28 46 50 87 50 91 0 5 7 14 15 21 8 7 15
23 15 36 0 13 4 24 10 24 5 0 7 7 4 15 -4 9 0 15 10 15 9 0 16 3 16 8 -1 13
-47 60 -66 66 -32 11 -77 53 -70 65 8 12 96 -43 96 -59 0 -6 5 -10 12 -10 6 0
19 -7 29 -16 15 -14 19 -11 48 38 l30 53 -22 18 c-12 9 -42 30 -67 47 -60 39
-82 62 -72 72 13 13 81 -34 82 -56 0 -12 5 -16 16 -12 9 3 29 -3 46 -15 34
-24 33 -24 77 54 l31 57 -35 17 c-35 17 -48 43 -21 43 8 0 21 3 30 6 11 4 16
0 16 -14 0 -12 4 -23 9 -26 14 -9 32 20 25 38 -4 10 -2 16 5 14 11 -3 21 12
59 85 l20 37 -22 0 c-18 0 -91 51 -116 81 -3 3 -45 36 -95 74 -49 37 -99 76
-110 85 -11 10 -33 26 -50 36 l-30 19 35 -41 c19 -22 59 -60 88 -84 29 -25 61
-52 70 -60 9 -8 36 -30 58 -48 32 -24 43 -40 46 -67 2 -22 0 -35 -7 -35 -7 0
-20 -9 -30 -20 -10 -11 -23 -20 -29 -20 -17 0 -69 31 -112 67 -22 18 -68 54
-104 80 -85 62 -156 119 -200 159 -19 18 -44 33 -55 34 -42 5 -75 0 -75 -11 0
-15 62 -117 90 -149 12 -14 34 -41 49 -60 14 -19 34 -44 44 -54 21 -24 21 -35
1 -64 -23 -34 -54 -43 -84 -25 -27 16 -190 213 -227 274 -17 27 -43 47 -104
78 -45 22 -84 41 -88 40 -3 0 -63 -23 -133 -51z m722 -260 c0 -5 -9 -4 -20 2
-11 6 -20 12 -20 14 0 2 9 2 20 -1 11 -3 20 -9 20 -15z m425 -28 c3 -5 -1 -10
-10 -10 -9 0 -13 5 -10 10 3 6 8 10 10 10 2 0 7 -4 10 -10z m-666 -35 c-3 -3
-28 -9 -55 -14 -27 -5 -58 -13 -69 -17 -11 -4 -17 -4 -14 0 14 15 125 53 133
45 5 -5 7 -11 5 -14z m44 -20 c1 -5 -6 -11 -15 -13 -11 -2 -18 3 -18 13 0 17
30 18 33 0z m507 7 c0 -13 -48 -32 -65 -26 -33 13 -10 30 43 33 12 0 22 -3 22
-7z m-334 -37 c14 -14 33 -25 42 -25 9 0 30 -10 46 -23 28 -22 28 -25 16 -61
-12 -37 -40 -56 -78 -56 -15 1 -15 3 2 15 11 8 27 15 37 15 16 0 33 36 23 51
-3 5 -20 16 -39 25 -19 9 -35 20 -35 25 0 5 -5 9 -12 9 -14 0 -48 30 -48 42 0
16 21 8 46 -17z m-116 -5 c0 -15 -35 -29 -49 -20 -8 4 -10 13 -7 19 9 14 56
15 56 1z m-280 -40 c24 -22 48 -40 53 -40 15 0 77 -41 77 -51 0 -16 -41 -9
-68 12 -23 18 -28 18 -37 5 -6 -8 -23 -18 -38 -21 -15 -4 -27 -10 -27 -14 0
-9 56 -51 67 -51 5 0 24 -15 43 -33 46 -44 58 -47 98 -25 31 17 52 17 52 -1 0
-5 -13 -11 -30 -14 -35 -7 -39 -22 -10 -37 22 -12 27 -40 7 -40 -8 0 -33 18
-57 40 -24 22 -47 40 -51 40 -19 0 -78 47 -76 60 1 8 -4 14 -12 12 -7 -1 -25
5 -40 15 -14 9 -46 28 -71 40 -25 13 -55 32 -68 43 -24 20 -22 40 4 40 23 0
86 -51 80 -65 -3 -10 6 -10 37 -3 23 5 44 13 45 19 2 5 15 9 28 9 32 0 30 15
-3 29 -43 18 -77 47 -69 60 11 17 20 14 66 -29z m225 -4 c17 -13 27 -28 22
-32 -8 -9 -80 29 -85 45 -7 20 32 11 63 -13z m95 14 c0 -5 -4 -10 -9 -10 -6 0
-13 5 -16 10 -3 6 1 10 9 10 9 0 16 -4 16 -10z m-395 -10 c6 -10 -34 -30 -61
-30 -24 0 -16 18 14 28 36 14 40 14 47 2z m790 -6 c14 -9 22 -20 19 -25 -5 -9
-53 20 -54 34 0 11 8 9 35 -9z m-572 0 c11 -11 -3 -24 -18 -18 -8 4 -12 10 -9
15 6 11 18 12 27 3z m267 -9 c14 -16 10 -18 -14 -9 -9 3 -16 10 -16 15 0 14
16 11 30 -6z m-40 -15 c0 -5 -4 -10 -9 -10 -6 0 -13 5 -16 10 -3 6 1 10 9 10
9 0 16 -4 16 -10z m-180 -8 c0 -13 -12 -22 -22 -16 -10 6 -1 24 13 24 5 0 9
-4 9 -8z m265 -2 c3 -5 1 -10 -4 -10 -6 0 -11 5 -11 10 0 6 2 10 4 10 3 0 8
-4 11 -10z m-131 -31 c37 -22 47 -39 22 -39 -20 0 -86 40 -86 51 0 15 27 10
64 -12z m96 11 c0 -5 -4 -10 -9 -10 -6 0 -13 5 -16 10 -3 6 1 10 9 10 9 0 16
-4 16 -10z m-637 -82 c45 -34 84 -65 87 -68 3 -3 12 -9 21 -15 10 -5 54 -37
100 -70 46 -33 88 -62 95 -65 6 -3 33 -24 60 -47 27 -23 60 -51 74 -62 14 -10
22 -23 18 -27 -12 -12 -59 15 -65 36 -3 11 -12 20 -19 20 -8 0 -51 28 -97 63
-46 34 -107 78 -135 97 -29 19 -52 41 -52 48 0 6 -6 12 -13 12 -17 0 -180 113
-185 128 -9 27 34 8 111 -50z m277 42 c0 -5 -7 -10 -15 -10 -8 0 -15 5 -15 10
0 6 7 10 15 10 8 0 15 -4 15 -10z m-200 -8 c0 -8 -43 -32 -55 -32 -15 0 -1 22
18 30 29 11 37 12 37 2z m330 -18 c22 -15 40 -31 40 -35 0 -5 9 -9 20 -9 11 0
20 -4 20 -8 0 -4 14 -16 30 -25 32 -19 39 -37 16 -37 -21 0 -85 43 -86 58 0 6
-10 12 -22 12 -29 1 -83 44 -74 59 10 15 11 15 56 -15z m105 5 c-3 -4 -12 -6
-20 -3 -8 4 -13 10 -10 15 3 4 12 6 20 3 8 -4 13 -10 10 -15z m128 -18 c37
-23 45 -35 29 -45 -13 -8 -82 43 -82 60 0 18 1 17 53 -15z m107 9 c0 -5 -7
-10 -15 -10 -8 0 -15 5 -15 10 0 6 7 10 15 10 8 0 15 -4 15 -10z m-422 -11
c-2 -6 -8 -10 -13 -10 -5 0 -11 4 -13 10 -2 6 4 11 13 11 9 0 15 -5 13 -11z
m496 -5 c3 -8 2 -12 -4 -9 -6 3 -10 10 -10 16 0 14 7 11 14 -7z m-254 -9 c0
-12 -19 -12 -23 0 -4 9 -1 12 9 8 7 -3 14 -7 14 -8z m205 -5 c-3 -5 -16 -10
-28 -10 -18 0 -19 2 -7 10 20 13 43 13 35 0z m-385 -10 c0 -5 -9 -10 -21 -10
-11 0 -17 5 -14 10 3 6 13 10 21 10 8 0 14 -4 14 -10z m225 -11 c10 -15 -1
-23 -20 -15 -9 3 -13 10 -10 16 8 13 22 13 30 -1z m235 -25 c0 -10 -7 -14 -22
-12 -32 5 -35 28 -4 28 17 0 26 -5 26 -16z m-575 -44 c3 -5 -1 -10 -10 -10 -9
0 -13 5 -10 10 3 6 8 10 10 10 2 0 7 -4 10 -10z m205 0 c0 -5 -4 -10 -9 -10
-6 0 -13 5 -16 10 -3 6 1 10 9 10 9 0 16 -4 16 -10z m234 -5 c3 -8 1 -15 -4
-15 -6 0 -10 7 -10 15 0 8 2 15 4 15 2 0 6 -7 10 -15z m-90 -21 c27 -18 35
-29 27 -37 -7 -7 -22 -2 -51 18 -22 15 -40 32 -40 36 0 16 25 9 64 -17z m-134
-8 c0 -2 -7 -7 -16 -10 -8 -3 -12 -2 -9 4 6 10 25 14 25 6z m-12 -43 c20 -16
50 -40 66 -55 17 -16 34 -28 38 -28 5 0 8 -7 8 -15 0 -20 -6 -19 -41 6 -16 11
-27 25 -24 30 4 5 -2 9 -13 9 -11 0 -31 9 -45 20 -14 11 -30 20 -36 20 -12 0
-15 23 -4 33 9 10 11 9 51 -20z m112 7 c0 -5 -4 -10 -10 -10 -5 0 -10 5 -10
10 0 6 5 10 10 10 6 0 10 -4 10 -10z m175 0 c-3 -5 -13 -10 -21 -10 -8 0 -14
5 -14 10 0 6 9 10 21 10 11 0 17 -4 14 -10z m-389 -15 c-19 -15 -46 -20 -46
-10 0 6 40 24 55 24 6 0 1 -6 -9 -14z m344 -32 c0 -15 -12 -11 -42 15 -10 8
-15 19 -12 23 7 12 54 -20 54 -38z m56 12 c-11 -8 -25 -15 -30 -15 -6 0 -2 7
8 15 11 8 25 15 30 15 6 0 2 -7 -8 -15z m-331 -25 c3 -5 1 -10 -4 -10 -6 0
-11 5 -11 10 0 6 2 10 4 10 3 0 8 -4 11 -10z m185 1 c0 -14 -18 -23 -30 -16
-6 4 -8 11 -5 16 8 12 35 12 35 0z m-130 -61 c0 -5 -9 -10 -21 -10 -11 0 -17
5 -14 10 3 6 13 10 21 10 8 0 14 -4 14 -10z"/>
<path d="M4520 1341 c0 -6 5 -13 10 -16 6 -3 10 1 10 9 0 9 -4 16 -10 16 -5 0
-10 -4 -10 -9z"/>
<path d="M6320 1300 c0 -5 -6 -10 -13 -10 -8 0 -40 -13 -73 -29 -32 -15 -99
-45 -148 -65 -48 -21 -104 -46 -123 -57 -18 -10 -38 -19 -42 -19 -5 0 -107
-48 -227 -106 -121 -58 -255 -123 -299 -144 -44 -21 -152 -73 -240 -115 -88
-43 -192 -92 -231 -111 -233 -108 -331 -158 -349 -177 -22 -24 -29 -71 -8 -63
7 3 10 -1 7 -8 -9 -23 14 -28 41 -10 14 9 25 13 25 9 0 -5 8 -1 18 8 9 8 22
16 27 17 6 1 25 8 44 16 19 8 36 13 38 10 2 -2 -14 -11 -36 -19 -21 -9 -42
-21 -46 -26 -3 -6 -23 -18 -43 -27 -46 -19 -115 -54 -156 -76 -17 -10 -48 -22
-68 -28 -21 -6 -38 -15 -38 -20 0 -6 -7 -10 -15 -10 -23 0 -18 40 7 49 19 7
19 8 4 14 -27 11 -38 -2 -34 -41 2 -32 -1 -39 -32 -60 -35 -23 -64 -50 -45
-40 78 38 334 162 450 218 83 40 227 110 321 156 94 46 179 84 188 84 10 0 88
37 174 82 87 45 243 125 347 178 223 113 428 220 435 227 2 2 -2 9 -10 14 -11
8 -8 9 12 5 39 -9 175 59 158 79 -10 12 -8 33 7 88 3 11 -1 17 -11 17 -9 0
-16 -4 -16 -10z m-122 -123 c16 4 22 1 22 -12 0 -13 -6 -15 -27 -11 -33 7 -93
-25 -93 -49 0 -9 -4 -14 -9 -11 -5 4 -11 1 -13 -6 -4 -12 -28 -3 -28 11 0 4 9
18 20 31 11 13 20 27 20 32 0 4 11 8 25 8 15 0 28 7 32 16 6 15 7 15 18 1 7
-10 20 -14 33 -10z m-128 -32 c-6 -8 -22 -17 -33 -21 -28 -8 -354 -163 -407
-193 -8 -5 -76 -37 -150 -71 -133 -62 -308 -147 -346 -169 -10 -6 -55 -27 -99
-47 -123 -55 -189 -87 -195 -94 -3 -3 -25 -14 -50 -23 -67 -25 -77 -34 -63
-48 9 -9 10 -16 1 -26 -9 -11 -14 -11 -29 3 -17 15 -21 15 -59 -4 -38 -19 -54
-16 -27 6 13 11 192 101 307 155 121 57 264 124 438 208 90 44 165 79 167 79
4 0 167 77 340 160 146 70 209 99 214 100 2 0 -2 -7 -9 -15z m-1283 -651 c-3
-3 -12 -4 -19 -1 -8 3 -5 6 6 6 11 1 17 -2 13 -5z m-107 -54 c0 -5 -4 -10 -10
-10 -5 0 -10 5 -10 10 0 6 5 10 10 10 6 0 10 -4 10 -10z"/>
<path d="M3102 1263 c-15 -6 -6 -23 14 -23 8 0 14 7 14 15 0 15 -6 17 -28 8z"/>
<path d="M2942 1048 c8 -12 20 -24 26 -26 20 -6 13 27 -7 38 -30 15 -35 12
-19 -12z"/>
<path d="M2985 1010 c-3 -5 8 -16 25 -25 16 -8 30 -19 30 -23 0 -4 14 -16 30
-25 38 -23 39 -6 3 28 -37 35 -80 57 -88 45z"/>
<path d="M2430 976 c0 -9 5 -16 10 -16 6 0 10 4 10 9 0 6 -4 13 -10 16 -5 3
-10 -1 -10 -9z"/>
<path d="M2451 934 c0 -11 3 -14 6 -6 3 7 2 16 -1 19 -3 4 -6 -2 -5 -13z"/>
<path d="M3114 908 c-4 -6 -3 -8 4 -4 6 3 14 1 19 -6 4 -7 15 -19 24 -25 13
-10 16 -10 16 2 0 8 -6 15 -14 15 -7 0 -13 4 -13 9 0 14 -29 21 -36 9z"/>
<path d="M2500 840 c0 -5 5 -10 11 -10 5 0 7 5 4 10 -3 6 -8 10 -11 10 -2 0
-4 -4 -4 -10z"/>
<path d="M3235 830 c3 -5 10 -10 16 -10 5 0 9 5 9 10 0 6 -7 10 -16 10 -8 0
-12 -4 -9 -10z"/>
<path d="M2526 799 c4 -18 1 -28 -10 -32 -17 -7 -22 -37 -6 -37 6 0 10 5 10
11 0 5 5 7 11 4 6 -4 8 -13 5 -20 -2 -7 2 -22 9 -32 19 -27 45 -105 39 -115
-3 -5 -10 -6 -15 -3 -17 11 -9 -6 16 -33 32 -34 33 -62 3 -61 -13 0 -17 3 -10
6 17 7 15 40 -3 40 -22 0 -16 -62 7 -87 18 -19 18 -21 -2 -42 -31 -33 -6 -34
35 -1 26 21 33 33 29 48 -4 11 -10 21 -14 23 -4 2 -6 12 -3 22 5 19 -58 225
-96 310 l-10 25 5 -26z m79 -339 c3 -5 -1 -10 -9 -10 -9 0 -16 5 -16 10 0 6 4
10 9 10 6 0 13 -4 16 -10z"/>
<path d="M3273 795 c0 -8 7 -15 14 -15 8 0 25 -12 39 -27 14 -15 30 -28 37
-29 7 -1 21 -6 31 -10 34 -13 10 11 -54 54 -33 23 -62 42 -64 42 -1 0 -3 -7
-3 -15z"/>
<path d="M3406 691 c-3 -4 6 -19 20 -32 18 -17 23 -19 18 -6 -8 21 2 22 22 2
11 -11 12 -15 3 -15 -7 0 -10 -2 -7 -5 3 -3 12 -3 21 1 13 4 9 11 -17 35 -35
30 -51 35 -60 20z"/>
<path d="M3516 625 c4 -8 11 -15 16 -15 6 0 5 6 -2 15 -7 8 -14 15 -16 15 -2
0 -1 -7 2 -15z"/>
<path d="M3568 584 c6 -11 13 -27 16 -36 6 -21 36 -24 36 -4 0 8 -14 25 -31
37 -27 19 -30 20 -21 3z"/>
<path d="M3750 441 c0 -6 4 -13 10 -16 6 -3 7 1 4 9 -7 18 -14 21 -14 7z"/>
<path d="M4552 370 c7 -10 14 -18 15 -16 6 6 -9 36 -18 36 -5 0 -4 -9 3 -20z"/>
<path d="M4500 355 c0 -8 6 -15 14 -15 22 0 28 17 10 24 -22 9 -24 8 -24 -9z"/>
<path d="M4420 320 c0 -5 4 -10 9 -10 6 0 13 5 16 10 3 6 -1 10 -9 10 -9 0
-16 -4 -16 -10z"/>
<path d="M4298 313 c7 -3 16 -2 19 1 4 3 -2 6 -13 5 -11 0 -14 -3 -6 -6z"/>
<path d="M4170 145 l-55 -13 41 -1 c23 -1 55 6 70 14 34 17 20 17 -56 0z"/>
</g>
</svg>
